<?xml version="1.0" encoding="utf-8"?>
<!-- Generator: Adobe Illustrator 26.1.0, SVG Export Plug-In . SVG Version: 6.00 Build 0)  -->
<svg version="1.1" id="Livello_1" xmlns="http://www.w3.org/2000/svg" xmlns:xlink="http://www.w3.org/1999/xlink" x="0px" y="0px"
	 viewBox="0 0 966 298" style="enable-background:new 0 0 966 298;" xml:space="preserve">
<style type="text/css">
	.st0{fill-rule:evenodd;clip-rule:evenodd;fill:#63A5C9;}
	.st1{fill-rule:evenodd;clip-rule:evenodd;fill:#AC485A;}
</style>
<g>
	<path class="st0" d="M109.16,61c-0.99-1.05-1.84-2.02-2.77-2.91c-1.06-1-2.14-2.09-3.57-2.44c-1.2-0.3-2.5-0.2-3.74-0.31
		c-0.77-0.07-1.53-0.26-2.3-0.29c-0.62-0.04-1.24,0.12-1.87,0.14c-1.07,0.04-2.14,0.06-3.21,0.06c-2.03-0.01-4.06-0.04-6.1-0.06
		c-3.29-0.05-6.58-0.09-9.88-0.16c-2.53-0.06-5.06-0.25-7.59-0.26c-0.78,0-1.6,0.3-2.33,0.62c-0.83,0.36-0.85,1.02-0.1,1.55
		c0.64,0.45,1.33,0.84,2.02,1.22c2.02,1.11,4.04,2.24,6.1,3.29c2.38,1.22,4.79,2.39,7.2,3.56c4.48,2.18,9.02,4.29,13.46,6.55
		c3.82,1.93,7.58,3.99,11.3,6.12c2.17,1.24,4.26,2.63,6.28,4.11c1.3,0.96,2.12,2.39,2.61,3.95c1.16,3.73,1.32,7.56,0.99,11.4
		c-0.25,2.93-1.12,5.69-2.89,8.08c-1.75,2.36-4.25,3.73-6.99,4.6c-0.84,0.27-1.82,0.1-2.73,0.12c-2.35,0-4.7-0.01-7.05-0.02
		c-2.32,0-4.65,0.04-6.98-0.01c-1.92-0.04-3.82-0.21-5.74-0.23c-3.03-0.02-6.06,0.06-9.08,0.08c-2.2,0.01-4.4,0.08-6.59-0.03
		c-2.23-0.1-4.46-0.35-6.69-0.6c-1.15-0.13-2.38-0.17-3.39-0.64c-1.38-0.65-2.67-1.56-3.87-2.52c-1.39-1.11-2.7-2.35-3.93-3.63
		c-0.92-0.96-1.67-2.1-2.56-3.22c1.75-1.46,3.47-2.9,5.32-4.45c-0.07-0.02,0.11,0.03,0.3,0.07c-0.06-0.05-0.11-0.11-0.17-0.17
		c0.44-0.52,0.82-1.11,1.33-1.54c1.05-0.86,2.18-1.61,3.26-2.42c0.29-0.22,0.47-0.58,0.76-0.81c0.65-0.53,1.3-0.45,1.76,0.25
		c0.68,1.03,1.49,1.94,2.38,2.81c1.37,1.34,2.98,1.85,4.78,1.91c2,0.08,4.01,0.08,6.02,0.02c2.51-0.06,5.02-0.31,7.52-0.3
		c2.29,0,4.59,0.28,6.88,0.41c1.22,0.07,2.45,0.11,3.67,0.13c2.97,0.04,5.94,0.07,8.9,0.11c0.96,0,1.92,0.05,2.87-0.02
		c0.38-0.03,0.74-0.33,1.12-0.52c0.03-0.1,0.05-0.21,0.08-0.31c-1.21-0.75-2.39-1.56-3.64-2.23c-2.35-1.26-4.77-2.43-7.13-3.67
		c-0.64-0.34-1.19-0.85-1.83-1.19c-1.12-0.59-2.29-1.1-3.42-1.67c-1.65-0.84-3.28-1.71-4.92-2.56c-1.76-0.91-3.53-1.81-5.29-2.73
		c-1.92-1.01-3.8-2.13-5.77-3.03c-1.92-0.88-3.63-2.05-5.42-3.12c-1.54-0.92-3.22-1.59-4.78-2.46c-2.02-1.13-4.01-2.35-5.51-4.18
		c-0.61-0.74-1.28-1.47-1.66-2.32c-0.7-1.53-1.45-3.06-1.47-4.83c-0.02-0.8-0.51-1.6-0.5-2.4c0.02-1.32,0.25-2.65,0.42-3.97
		c0.16-1.22,0.3-2.44,0.56-3.64c0.12-0.53,0.51-1,0.81-1.48c0.37-0.59,0.75-1.17,1.16-1.73c0.38-0.55,0.75-1.12,1.21-1.59
		c0.72-0.76,1.48-1.5,2.3-2.14c0.56-0.43,1.24-0.71,1.88-1.02c0.78-0.36,1.55-0.73,2.36-1.02c2.41-0.86,4.93-0.88,7.45-0.88
		c2.45-0.01,4.9-0.16,7.35-0.13c2.06,0.02,4.12,0.26,6.18,0.3c2.05,0.04,4.1-0.09,6.16-0.09c0.92,0,1.84,0.16,2.76,0.16
		c1.67-0.01,3.35-0.1,5.03-0.13c0.67-0.01,1.34,0.06,2.01,0.09c2.35,0.12,4.7,0.18,7.05,0.35c2.33,0.17,4.49,1.01,6.37,2.35
		c1.34,0.95,2.47,2.21,3.64,3.38c1.04,1.04,2.03,2.14,3.04,3.21c0.56,0.58,0.48,0.93-0.2,1.47c-1.21,0.97-2.21,2.19-3.36,3.23
		c-1.22,1.1-2.5,2.13-3.75,3.19c-0.62,0.53-1.22,1.07-1.84,1.59C110.51,59.9,109.83,60.45,109.16,61z"/>
	<path class="st0" d="M321.76,94.57c1.24,0,2.2-0.01,3.17,0c4.04,0.06,8.08,0.11,12.12,0.17c3.89,0.06,7.78,0.15,11.67,0.16
		c2.07,0.01,4.15-0.14,6.22-0.14c2.04,0,4.08,0.11,6.12,0.14c0.52,0.01,0.76,0.24,0.74,0.71c-0.02,2.18-0.06,4.37-0.11,6.56
		c-0.06,1.63-0.11,3.28-0.22,4.91c-0.11,1.54-0.15,1.73-1.78,1.78c-0.67,0.02-1.36,0.12-2.04,0.17c-0.74,0.05-1.48,0.15-2.24,0.14
		c-2.35-0.03-4.69-0.11-7.04-0.12c-1.32,0-2.65,0.09-3.98,0.15c-1.61,0.06-3.22,0.13-4.84,0.15c-0.89,0-1.8-0.16-2.69-0.13
		c-1.91,0.06-3.8,0.21-5.71,0.28c-0.83,0.02-1.69-0.09-2.54-0.13c-1.43-0.06-2.85-0.15-4.28-0.16c-2.83-0.03-5.69-0.03-8.52-0.01
		c-2.35,0.02-4.69,0.1-7.02,0.13c-1.91,0.04-3.82,0.05-5.73,0.02c-1.09,0-2.17-0.07-3.24-0.18c-0.22-0.02-0.52-0.32-0.59-0.56
		c-0.18-0.59-0.33-1.2-0.33-1.82c-0.09-3.17-0.05-6.34-0.22-9.5c-0.09-1.79,0.85-2.96,1.98-4.02c1.81-1.69,3.69-3.28,5.56-4.9
		c2.85-2.47,5.73-4.92,8.56-7.41c0.98-0.87,1.85-1.88,2.84-2.76c1.78-1.59,3.61-3.13,5.41-4.69c0.2-0.16,0.41-0.31,0.59-0.49
		c1.78-1.66,3.54-3.3,5.3-4.98c1.35-1.3,2.67-2.68,4.02-3.99c1.21-1.16,2.48-2.24,3.71-3.4c1.13-1.1,2.24-2.25,3.37-3.39
		c0.13-0.14,0.2-0.33,0.3-0.46c-3.37,0.09-6.71,0.21-10.04,0.25c-1.02,0.02-2.02-0.24-3.04-0.28c-1.19-0.05-2.37-0.01-3.56-0.01
		c-0.68,0-1.39,0.02-2.09,0c-1.83-0.06-3.67-0.15-5.5-0.18c-2.8-0.06-5.6-0.09-8.39-0.1c-1.52-0.01-3.02,0.11-4.54,0.06
		c-1.26-0.03-2.54-0.18-3.8-0.38c-0.24-0.03-0.61-0.54-0.59-0.81c0.17-2.64,0.46-5.27,0.63-7.91c0.09-1.69,0.04-3.39,0.04-5.1
		c0-0.71,0.54-1.24,1.43-1.25c0.74,0,1.46,0.13,2.21,0.14c0.65,0,1.3-0.14,1.95-0.14c1.72,0.03,3.45,0.13,5.17,0.16
		c0.71,0.01,1.41-0.16,2.11-0.16c5.37,0.04,10.77,0.11,16.14,0.16c2.3,0.02,4.58-0.02,6.87,0.02c1.43,0.01,2.85,0.17,4.26,0.15
		c2.24-0.05,4.47-0.26,6.71-0.26c2.47,0,4.93,0.18,7.37,0.24c1.78,0.05,3.58,0.01,5.36,0.03c0.89,0.02,1.76,0.09,2.63,0.18
		c0.83,0.09,0.61,0.81,0.65,1.27c0.15,2.46,0.26,4.92,0.33,7.37c0.02,1.18-0.05,2.36-0.05,3.54c-0.02,0.5-0.06,1.02,0.07,1.5
		c0.39,1.65-0.46,2.61-1.65,3.58c-2.87,2.36-5.67,4.81-8.45,7.25c-2.69,2.34-5.32,4.73-7.95,7.1c-2,1.8-4,3.6-5.97,5.43
		c-2.13,1.98-4.22,3.99-6.34,5.99c-1.76,1.67-3.54,3.32-5.32,4.99C325.28,91.22,323.62,92.81,321.76,94.57z"/>
	<path class="st0" d="M433.15,106.58c-0.18,0-0.46,0.07-0.65-0.02c-0.94-0.48-1.89-0.95-2.78-1.52c-0.48-0.32-0.76-0.92-1.22-1.26
		c-0.72-0.56-1.52-0.98-2.28-1.48c-0.2-0.14-0.48-0.32-0.54-0.53c-0.28-1.28-1.35-1.97-2.15-2.83c-2.19-2.3-3.76-5-5.34-7.71
		c-1.13-1.92-2.13-3.93-2.97-5.99c-0.56-1.36-0.8-2.87-1.07-4.33c-0.3-1.65-0.61-3.33-0.65-4.99c-0.02-1.67,0.2-3.35,0.45-5.01
		c0.28-1.98,0.8-3.93,1-5.9c0.2-1.75,1.04-3.19,1.8-4.66c0.8-1.52,1.74-2.95,2.72-4.37c0.7-1.02,1.58-1.93,2.35-2.9
		c0.57-0.72,1.09-1.51,1.72-2.17c0.78-0.79,1.63-1.49,2.48-2.2c0.93-0.79,1.82-1.66,2.86-2.3c3.06-1.92,6.19-3.68,9.84-4.32
		c1.06-0.19,2.09-0.72,3.17-0.81c2.56-0.2,5.11-0.22,7.67-0.34c3.45-0.18,6.62,1.06,9.82,2.04c1.91,0.58,3.86,1.19,5.63,2.09
		c2.11,1.07,4.13,2.39,6.1,3.74c1.04,0.72,1.94,1.7,2.83,2.64c1.3,1.4,2.67,2.79,3.78,4.35c0.83,1.18,1.32,2.6,1.93,3.93
		c1.67,3.72,2.83,7.62,3.85,11.57c0.18,0.76,0.24,1.57,0.28,2.37c0.07,1.38,0.13,2.76,0.15,4.15c0,0.5-0.13,1.02-0.26,1.51
		c-0.81,3.13-1.57,6.28-2.5,9.37c-0.93,3.03-2.74,5.6-4.67,8.06c-1.52,1.93-3.11,3.8-4.8,5.56c-0.74,0.77-1.85,1.17-2.74,1.8
		c-1.98,1.41-4.19,2.39-6.34,3.44c-2.17,1.06-4.47,1.65-6.86,1.97c-1.11,0.16-2.19,0.48-3.3,0.62c-0.72,0.1-1.43,0.03-2.15,0.05
		c-1,0.03-2.02,0.17-3,0.09c-1.39-0.11-2.74-0.4-4.13-0.56c-0.61-0.06-1.24,0.1-1.85,0c-0.74-0.13-1.46-0.43-2.19-0.65
		c-0.98-0.3-2-0.55-2.93-0.95C435.17,107.71,434.19,107.13,433.15,106.58z M468.99,76.35c-0.07-0.01-0.15-0.03-0.22-0.05
		c-0.05-0.29-0.15-0.57-0.17-0.87c0-0.25,0.13-0.5,0.13-0.76c-0.02-0.64-0.17-1.28-0.15-1.92c0.09-3.96-1.24-7.44-3.76-10.41
		c-0.96-1.14-2.39-1.88-3.41-2.99c-1.54-1.67-3.59-2.34-5.56-3.02c-1.74-0.6-3.69-0.67-5.56-0.8c-3.35-0.23-6.6,0.6-9.69,1.67
		c-1.98,0.69-3.76,2.09-5.47,3.38c-1.94,1.48-3.45,3.42-4.71,5.53c-1.15,1.95-2.48,3.84-2.58,6.18c-0.06,1.45,0.19,2.92,0.43,4.38
		c0.56,3.65,1.65,7.1,4.17,9.95c1.3,1.48,2.45,3.13,3.95,4.38c1.96,1.64,4.17,2.94,6.78,3.42c1.59,0.28,3.11,1.07,4.76,0.98
		c1.93-0.11,3.87-0.27,5.74-0.64c1.35-0.27,2.61-0.93,3.93-1.41c2.47-0.9,4.49-2.48,6.12-4.48c0.93-1.13,2.17-2.11,2.33-3.73
		c1.52-1.71,1.76-3.93,2.41-5.99C468.77,78.26,468.82,77.29,468.99,76.35z"/>
	<path class="st0" d="M205.38,109.36c0.3-0.87,0.46-1.48,0.71-2.06c0.74-1.74,1.53-3.45,2.25-5.19c0.96-2.33,1.84-4.7,2.83-7.03
		c0.98-2.31,2.08-4.57,3.07-6.86c1.1-2.55,2.13-5.13,3.21-7.69c0.43-1,0.97-1.96,1.37-2.98c0.65-1.67,1.24-3.36,1.83-5.06
		c1.39-4,2.97-7.91,5-11.64c0.78-1.43,1.32-3,1.95-4.51c1.23-2.94,2.44-5.89,3.67-8.82c0.77-1.83,1.59-3.64,2.33-5.47
		c0.28-0.66,0.69-0.97,1.41-0.97c2.63,0.01,5.28-0.02,7.92,0c2.2,0.02,4.41,0.13,6.61,0.14c0.67,0.01,1.07,0.26,1.32,0.84
		c0.69,1.66,1.33,3.34,2.02,5c0.69,1.66,1.39,3.31,2.11,4.95c1.09,2.47,2.19,4.94,3.35,7.38c0.74,1.57,1.67,3.06,2.41,4.63
		c0.93,1.96,1.72,3.96,2.59,5.94c0.57,1.32,1.24,2.59,1.78,3.93c0.37,0.9,0.54,1.88,0.91,2.78c0.85,2.05,1.78,4.07,2.67,6.11
		c0.11,0.21,0.2,0.4,0.33,0.6c0.54,0.9,1.19,1.67,1.33,2.84c0.13,1.13,0.85,2.17,1.28,3.26c0.67,1.73,1.3,3.47,1.98,5.2
		c0.45,1.06,1.06,2.06,1.48,3.13c1.06,2.66,2.02,5.36,3.06,8.02c0.22,0.57,0.65,1.07,0.94,1.63c0.19,0.35,0.26,0.74,0.48,1.36
		c-1.96,0-3.71-0.04-5.43,0.01c-3.63,0.1-7.25,0.28-10.86,0.37c-0.28,0-0.69-0.36-0.82-0.65c-0.67-1.51-1.26-3.06-1.89-4.58
		c-0.87-2.08-1.76-4.15-2.69-6.21c-0.07-0.18-0.41-0.35-0.61-0.33c-1.57,0.09-3.15,0.33-4.73,0.36c-4,0.05-8.01,0.05-12.01,0.01
		c-4.34-0.04-8.67-0.1-13-0.18c-0.54-0.01-0.82,0.16-1.01,0.66c-0.81,2.08-1.68,4.13-2.47,6.21c-0.44,1.15-0.81,2.33-1.14,3.52
		c-0.23,0.81-0.77,1.22-1.97,1.23c-2.92,0.02-5.85,0.06-8.77,0.08C210,109.38,207.81,109.36,205.38,109.36z M243.08,58.76
		c-0.12,0.02-0.25,0.03-0.37,0.04c-2.64,7.92-5.29,15.84-7.99,23.91c2.88,0,5.79,0.03,8.69-0.01c2.94-0.04,5.89-0.16,9.06-0.25
		C249.3,74.46,246.18,66.6,243.08,58.76z"/>
	<path class="st0" d="M395.38,109.21c-1.38,0-1,0.07-2.56,0.09c-0.62,0-1.24-0.12-1.86-0.09c-2.36,0.09-4.72,0.24-7.07,0.32
		c-0.79,0.02-1.65,0.05-2.35-0.24c-0.32-0.13-0.37-1.04-0.44-1.59c-0.07-0.56-0.03-1.13-0.04-1.71c-0.01-0.39-0.07-0.8,0-1.19
		c0.2-1.11,0.19-2.2-0.01-3.33c-0.18-1.09,0.01-2.25-0.01-3.37c-0.03-1.32-0.14-2.61-0.14-3.91c0.01-1.13,0.14-2.28,0.21-3.45
		c0.03,0-0.12-0.02-0.23-0.02c0.06-0.63,0.12-1.24,0.18-1.89c0.1,0.18,0.19,0.37,0.23,0.44c0-1.04,0.04-2.14-0.01-3.23
		c-0.06-1.36-0.42-2.75-0.2-4.04c0.32-1.94-0.21-3.79-0.14-5.67c0.07-1.89,0.2-3.78,0.2-5.66c0.01-1.27-0.14-2.55-0.22-3.82
		c0.05,0.1,0.11,0.23,0.22,0.46c0-1.34,0-2.57,0-3.9c0,0,0.13-0.02,0.3-0.03c-0.03-0.61,0.12-1.33-0.16-1.81
		c-0.43-0.78,0.03-1.51-0.17-2.27c-0.21-0.79-0.03-1.67-0.03-2.52c0-1.61-0.03-3.23,0.01-4.84c0.03-1.09,0.15-2.19,0.23-3.3
		c0.11-1.52,0.25-3.05,0.32-4.58c0.02-0.59-0.03-1.2-0.21-1.75c-0.23-0.73,0.24-0.81,0.69-0.86c1.45-0.15,2.92-0.32,4.38-0.35
		c2.65-0.05,5.3-0.01,7.94-0.01c1.05,0,1.32,0.26,1.34,1.29c0.06,2.28,0.15,4.56,0.16,6.84c0,1.69-0.13,3.39-0.15,5.08
		c-0.03,2.24,0.04,4.49-0.03,6.73c-0.04,1.53-0.24,3.06-0.34,4.59c-0.04,0.67-0.01,1.35,0.01,2.02c0.05,2.98,0.12,5.95,0.16,8.93
		c0.03,2.81,0.02,5.63,0.01,8.45c0,2.19-0.01,4.38-0.05,6.57c-0.01,0.78-0.11,1.55-0.09,2.32L395.38,109.21z"/>
	<path class="st0" d="M197.39,59.77c-0.17-0.69-0.3-1.4-0.52-2.07c-0.23-0.71-0.58-1.37-0.85-2.07c-0.22-0.56-0.32-1.17-0.59-1.71
		c-0.45-0.9-0.95-1.78-1.51-2.61c-0.58-0.88-1.32-1.65-1.89-2.53c-0.74-1.15-1.54-2.23-2.74-2.93c-0.96-0.55-1.91-1.11-2.88-1.63
		c-0.72-0.39-1.48-0.7-2.21-1.07c-0.3-0.15-0.55-0.42-0.87-0.49c-1.51-0.41-3.01-0.83-4.54-1.12c-1.28-0.25-2.58-0.35-3.89-0.46
		c-0.04,0-0.09,0.01-0.13,0.01v-0.01h-20.53v0c-2.43,0-4.86-0.03-7.28,0.02c-1.46,0.03-2.92,0.2-4.38,0.35
		c-0.45,0.04-0.92,0.13-0.69,0.86c0.18,0.55,0.23,1.16,0.21,1.75c-0.06,1.53-0.2,3.06-0.32,4.58c-0.08,1.1-0.2,2.2-0.23,3.3
		c-0.04,1.61-0.01,3.23-0.01,4.84c0,0.84-0.18,1.73,0.03,2.52c0.2,0.76-0.26,1.49,0.17,2.27c0.28,0.48,0.13,1.21,0.16,1.81
		c-0.16,0.02-0.3,0.03-0.3,0.03c0,1.33,0,2.56,0,3.9c-0.11-0.22-0.17-0.35-0.22-0.46c0.08,1.27,0.23,2.55,0.22,3.82
		c-0.01,1.89-0.14,3.78-0.2,5.66c-0.07,1.89,0.47,3.74,0.14,5.67c-0.22,1.3,0.15,2.68,0.2,4.04c0.05,1.09,0.01,2.19,0.01,3.23
		c-0.04-0.07-0.13-0.26-0.23-0.44c-0.06,0.64-0.12,1.26-0.18,1.89c0.11,0,0.25,0.02,0.23,0.02c-0.08,1.17-0.2,2.32-0.21,3.45
		c-0.01,1.3,0.11,2.59,0.13,3.91c0.02,1.12-0.17,2.28,0.01,3.37c0.2,1.14,0.21,2.22,0.01,3.33c-0.07,0.39-0.01,0.79,0,1.19
		c0.01,0.57-0.04,1.15,0.04,1.71c0.07,0.55,0.12,1.46,0.45,1.59c0.69,0.3,1.56,0.26,2.35,0.24c2.35-0.08,4.71-0.23,7.07-0.32
		c0.62-0.03,1.24,0.09,1.86,0.09c1.56-0.02,1.19-0.09,2.56-0.09l0.1-15.31c-0.02-0.77,0.08-1.54,0.09-2.32
		c0.02-1.1,0.02-2.2,0.02-3.3h18.69v-0.05c1.02,0.06,2.03,0.03,3.02-0.15c1.59-0.28,3.16-0.78,4.67-1.37
		c1.68-0.66,3.31-1.46,4.74-2.59c0.45-0.35,0.82-0.8,1.25-1.17c0.71-0.62,1.56-1.13,2.14-1.84c1.24-1.5,2.44-3.04,3.36-4.79
		c0.56-1.07,1.31-2.05,1.8-3.15c0.49-1.13,0.73-2.36,1.14-3.53c0.59-1.63,0.77-3.33,0.86-5.05
		C197.81,62.98,197.78,61.36,197.39,59.77z M185.11,65.25c-0.04,0.65-0.15,1.32-0.54,1.9c-0.13,0.19-0.2,0.45-0.2,0.68
		c-0.02,0.95-0.58,1.7-0.87,2.55c-0.12,0.35-0.25,0.67-0.6,0.89c-0.17,0.11-0.26,0.37-0.35,0.58c-0.37,0.85-1.17,1.23-1.88,1.67
		c-0.82,0.51-1.73,0.88-2.6,1.29c-1.36,0.64-2.77,0.86-4.22,0.79l0.01,0.04h-17.81c-0.04-2.67-0.1-5.33-0.14-8
		c-0.01-0.67-0.05-1.35-0.01-2.02c0.1-1.53,0.3-3.06,0.34-4.59c0.06-2.24,0-4.49,0.02-6.73c0-0.42,0.03-0.84,0.04-1.25h18.02
		c0.6,0,1.21,0.04,1.82,0.16c0.69,0.14,1.38,0.24,2.08,0.32c1.23,0.15,2.21,0.78,3.14,1.54c1.37,1.12,2.4,2.5,3.01,4.16
		c0.25,0.68,0.6,1.36,0.66,2.06c0.04,0.4-0.09,0.85-0.01,1.29c0.05,0.27,0.12,0.53,0.17,0.79c-0.04,0.01-0.07,0.02-0.11,0.03
		c-0.02-0.1-0.05-0.19-0.11-0.39C185.03,63.83,185.16,64.55,185.11,65.25z"/>
</g>
<g>
	<path class="st0" d="M138.14,178.87c-1.41-1.48-2.61-2.86-3.93-4.12c-1.5-1.42-3.04-2.96-5.07-3.47c-1.7-0.43-3.54-0.28-5.31-0.44
		c-1.1-0.09-2.17-0.36-3.26-0.41c-0.88-0.05-1.76,0.17-2.65,0.2c-1.51,0.06-3.03,0.09-4.55,0.08c-2.88-0.01-5.76-0.05-8.64-0.09
		c-4.66-0.07-9.33-0.12-14-0.23c-3.59-0.09-7.17-0.36-10.76-0.37c-1.11-0.01-2.27,0.42-3.31,0.88c-1.18,0.52-1.2,1.45-0.14,2.19
		c0.91,0.64,1.88,1.2,2.86,1.73c2.87,1.58,5.73,3.17,8.65,4.66c3.38,1.73,6.79,3.38,10.21,5.04c6.36,3.09,12.78,6.08,19.09,9.29
		c5.41,2.75,10.75,5.66,16.02,8.68c3.07,1.76,6.04,3.73,8.9,5.83c1.85,1.35,3.01,3.38,3.7,5.6c1.64,5.29,1.87,10.72,1.4,16.16
		c-0.35,4.15-1.59,8.07-4.09,11.45c-2.48,3.35-6.02,5.28-9.91,6.52c-1.19,0.38-2.58,0.14-3.88,0.16c-3.33,0-6.66-0.01-9.99-0.03
		c-3.29,0-6.59,0.05-9.89-0.01c-2.72-0.05-5.43-0.3-8.14-0.33c-4.3-0.03-8.58,0.09-12.87,0.12c-3.12,0.01-6.24,0.12-9.35-0.04
		c-3.17-0.14-6.33-0.5-9.48-0.85c-1.62-0.18-3.37-0.25-4.81-0.91c-1.96-0.92-3.78-2.21-5.49-3.58c-1.97-1.58-3.82-3.34-5.57-5.15
		c-1.31-1.37-2.37-2.97-3.63-4.57c2.48-2.08,4.92-4.11,7.54-6.31c-0.1-0.03,0.16,0.05,0.42,0.11c-0.08-0.08-0.16-0.16-0.24-0.24
		c0.62-0.74,1.16-1.58,1.89-2.18c1.49-1.22,3.09-2.29,4.62-3.44c0.41-0.32,0.66-0.83,1.07-1.15c0.92-0.75,1.85-0.64,2.5,0.35
		c0.96,1.46,2.11,2.75,3.38,3.98c1.94,1.89,4.23,2.61,6.77,2.71c2.84,0.11,5.69,0.11,8.53,0.03c3.55-0.09,7.11-0.45,10.67-0.42
		c3.25,0,6.5,0.39,9.76,0.58c1.73,0.1,3.47,0.16,5.2,0.18c4.21,0.05,8.42,0.11,12.62,0.16c1.36,0,2.73,0.08,4.07-0.03
		c0.55-0.04,1.06-0.47,1.58-0.74c0.04-0.13,0.07-0.29,0.11-0.43c-1.72-1.06-3.39-2.21-5.16-3.17c-3.34-1.79-6.76-3.45-10.11-5.21
		c-0.91-0.48-1.69-1.2-2.6-1.68c-1.58-0.84-3.24-1.56-4.85-2.37c-2.34-1.19-4.64-2.42-6.97-3.63c-2.5-1.29-5.01-2.57-7.51-3.88
		c-2.73-1.43-5.39-3.02-8.18-4.3c-2.72-1.25-5.15-2.9-7.69-4.42c-2.18-1.3-4.56-2.25-6.78-3.49c-2.87-1.61-5.69-3.33-7.82-5.92
		c-0.86-1.04-1.81-2.08-2.36-3.29c-0.99-2.17-2.05-4.33-2.09-6.84c-0.03-1.14-0.72-2.27-0.71-3.4c0.03-1.88,0.35-3.76,0.59-5.63
		c0.23-1.73,0.42-3.47,0.79-5.16c0.16-0.75,0.72-1.42,1.15-2.1c0.52-0.83,1.07-1.66,1.64-2.46c0.55-0.78,1.06-1.58,1.72-2.26
		c1.02-1.08,2.1-2.13,3.26-3.03c0.79-0.62,1.75-1,2.67-1.44c1.1-0.52,2.2-1.04,3.34-1.45c3.42-1.22,6.99-1.25,10.56-1.26
		c3.47,0,6.96-0.22,10.43-0.19c2.92,0.03,5.85,0.37,8.76,0.42c2.91,0.05,5.82-0.13,8.73-0.13c1.3-0.01,2.61,0.23,3.91,0.22
		c2.37-0.01,4.75-0.14,7.13-0.18c0.95-0.01,1.9,0.09,2.85,0.13c3.33,0.17,6.67,0.26,10,0.5c3.31,0.25,6.36,1.44,9.02,3.34
		c1.9,1.35,3.49,3.14,5.16,4.79c1.48,1.47,2.87,3.03,4.31,4.54c0.79,0.83,0.68,1.31-0.28,2.09c-1.71,1.38-3.14,3.1-4.77,4.58
		c-1.72,1.56-3.54,3.02-5.31,4.53c-0.87,0.75-1.73,1.51-2.61,2.25C140.06,177.32,139.1,178.09,138.14,178.87z"/>
	<path class="st0" d="M753.63,172.8c-3.28,0-6.59,0.05-9.88-0.02c-2.5-0.05-4.99-0.41-7.49-0.39c-5.81,0.07-11.64,0.33-17.47,0.41
		c-3.02,0.04-6.07-0.11-9.09-0.24c-2.05-0.09-4.1-0.41-6.15-0.43c-1.58-0.01-3.18,0.38-4.78,0.44c-1.21,0.04-2.47-0.09-3.65-0.32
		c-0.29-0.05-0.63-0.81-0.6-1.22c0.05-1.11,0.39-2.22,0.42-3.33c0.08-2.7,0-5.41,0.05-8.1c0-1.59,0.16-3.17,0.16-4.76
		c0.03-0.8,0-1.61-0.16-2.39c-0.21-1.21,0.03-1.58,1.23-1.59c2.23-0.01,4.44,0.06,6.65-0.02c1.52-0.05,3.02-0.37,4.54-0.42
		c1.26-0.05,2.5,0.16,3.76,0.18c2.94,0.04,5.91,0.04,8.88,0.04c2.6,0,5.23-0.05,7.86-0.01c1.08,0.01,2.18,0.27,3.28,0.25
		c2.52-0.03,5.07-0.21,7.59-0.26c5.62-0.11,11.27-0.2,16.89-0.24c2.1-0.02,4.2,0.2,6.28,0.21c1.42,0.01,2.84-0.18,4.28-0.19
		c1.16-0.01,2.31,0.22,3.49,0.18c2.68-0.1,5.39-0.37,8.07-0.42c2.26-0.05,4.52,0.07,6.78,0.23c0.92,0.06,1.5,0.64,1.47,1.72
		c-0.05,1.34,0.03,2.68,0.03,4.02c0.1,4.8,0.21,9.61,0.29,14.41c0,0.2-0.21,0.43-0.37,0.58c-3.81,3.67-7.33,7.63-11.64,10.8
		c-2.5,1.85-4.65,4.2-6.94,6.33c-1.34,1.23-2.65,2.44-3.97,3.69c-1.42,1.34-2.81,2.72-4.23,4.08c-3.21,3.11-6.44,6.22-9.64,9.35
		c-3.13,3.03-6.33,5.96-9.25,9.16c-2.39,2.61-5.02,4.91-7.72,7.17c-1.68,1.39-3.05,3.18-4.52,4.76c19.05,0,38.12,0,57.35,0
		c0.13,1.37,0.58,2.99,0.32,4.47c-0.42,2.15,0.11,4.2,0.16,6.31c0.03,2.06-0.05,4.12,0.03,6.16c0.05,1.33,0.32,2.64,0.53,4.31
		c-0.55,0.17-1.34,0.64-2.15,0.67c-2.78,0.09-5.6,0.07-8.41,0.03c-3.91-0.05-7.86-0.17-11.77-0.24c-3.36-0.04-6.73-0.03-10.09-0.05
		c-5.41-0.05-10.82-0.16-16.24-0.17c-2.23-0.01-4.44,0.16-6.67,0.22c-3.23,0.08-6.44-0.26-9.72,0.16c-2.34,0.29-4.78-0.29-7.2-0.43
		c-1.21-0.08-2.44-0.03-3.65-0.08c-2.52-0.09-5.02-0.28-7.54-0.34c-0.92-0.04-1.84,0.2-2.76,0.2c-1.58-0.03-3.15-0.09-4.68-0.29
		c-0.34-0.03-0.81-0.67-0.84-1.05c-0.11-2.34-0.03-4.68-0.13-6.99c-0.24-4.02-0.55-8.03-0.87-12.03c-0.08-0.79,0.21-1.29,0.79-1.75
		c1.23-0.96,2.52-1.88,3.65-2.96c2.71-2.65,5.54-5.08,8.64-7.28c2.63-1.87,4.99-4.15,7.41-6.33c3.18-2.86,6.28-5.81,9.43-8.68
		c1.89-1.71,3.86-3.31,5.75-5.03c3.86-3.58,7.65-7.26,11.59-10.8c2.34-2.13,4.94-3.98,7.33-6.07c1.89-1.66,3.65-3.49,5.46-5.25
		C753.77,173.05,753.71,172.93,753.63,172.8z"/>
	<path class="st0" d="M597.44,226.48c1.76,0,3.13-0.01,4.49,0c5.73,0.08,11.45,0.16,17.18,0.24c5.52,0.08,11.03,0.21,16.55,0.22
		c2.94,0.01,5.88-0.2,8.83-0.2c2.89,0,5.78,0.16,8.67,0.21c0.74,0.01,1.08,0.34,1.05,1c-0.03,3.1-0.08,6.2-0.16,9.3
		c-0.08,2.31-0.16,4.65-0.32,6.96c-0.16,2.18-0.21,2.45-2.52,2.52c-0.95,0.03-1.92,0.17-2.89,0.24c-1.05,0.08-2.1,0.21-3.18,0.2
		c-3.34-0.04-6.65-0.16-9.98-0.17c-1.87,0-3.76,0.13-5.65,0.21c-2.29,0.08-4.57,0.18-6.86,0.21c-1.26,0-2.55-0.22-3.81-0.18
		c-2.71,0.08-5.39,0.29-8.09,0.39c-1.18,0.03-2.39-0.13-3.6-0.18c-2.02-0.08-4.05-0.21-6.07-0.22c-4.02-0.04-8.07-0.04-12.09-0.01
		c-3.34,0.03-6.65,0.14-9.96,0.18c-2.71,0.05-5.41,0.07-8.12,0.03c-1.55,0-3.07-0.11-4.6-0.26c-0.32-0.03-0.74-0.46-0.84-0.79
		c-0.26-0.84-0.47-1.71-0.47-2.58c-0.13-4.49-0.08-8.99-0.32-13.48c-0.13-2.54,1.21-4.19,2.81-5.7c2.57-2.39,5.23-4.66,7.88-6.96
		c4.05-3.51,8.12-6.97,12.14-10.5c1.39-1.23,2.63-2.67,4.02-3.91c2.52-2.25,5.12-4.43,7.67-6.64c0.29-0.24,0.58-0.45,0.84-0.69
		c2.52-2.35,5.02-4.68,7.51-7.06c1.92-1.85,3.78-3.8,5.7-5.66c1.71-1.64,3.52-3.18,5.25-4.81c1.6-1.56,3.18-3.19,4.78-4.8
		c0.18-0.19,0.29-0.46,0.42-0.65c-4.78,0.13-9.51,0.3-14.24,0.36c-1.44,0.02-2.86-0.34-4.31-0.4c-1.68-0.07-3.36-0.01-5.04-0.01
		c-0.97,0-1.97,0.02-2.97-0.01c-2.6-0.09-5.2-0.21-7.8-0.26c-3.97-0.08-7.93-0.13-11.9-0.14c-2.15-0.01-4.28,0.16-6.44,0.09
		c-1.79-0.05-3.6-0.26-5.39-0.54c-0.34-0.05-0.87-0.77-0.84-1.15c0.24-3.74,0.66-7.47,0.89-11.22c0.13-2.4,0.05-4.82,0.05-7.23
		c0-1,0.76-1.75,2.02-1.76c1.05-0.01,2.08,0.18,3.13,0.19c0.92,0.01,1.84-0.2,2.76-0.19c2.44,0.04,4.89,0.18,7.33,0.21
		c1,0.01,2-0.23,3-0.21c7.62,0.06,15.26,0.16,22.88,0.22c3.26,0.03,6.49-0.03,9.75,0.02c2.02,0.02,4.05,0.25,6.04,0.21
		c3.18-0.06,6.33-0.36,9.51-0.36c3.49,0,6.99,0.25,10.46,0.34c2.52,0.07,5.07,0,7.59,0.05c1.26,0.02,2.5,0.12,3.73,0.24
		c1.18,0.13,0.87,1.16,0.92,1.81c0.21,3.48,0.37,6.97,0.47,10.45c0.03,1.67-0.08,3.35-0.08,5.02c-0.03,0.72-0.08,1.45,0.11,2.13
		c0.55,2.34-0.66,3.7-2.34,5.08c-4.07,3.34-8.04,6.82-11.98,10.29c-3.81,3.32-7.54,6.7-11.27,10.06c-2.84,2.55-5.67,5.11-8.46,7.7
		c-3.02,2.8-5.99,5.66-8.98,8.49c-2.5,2.36-5.02,4.7-7.54,7.07C602.44,221.72,600.07,223.97,597.44,226.48z"/>
	<path class="st0" d="M179.6,199.91c0.18-1.15,0.45-2.3,0.51-3.45c0.05-1-0.14-2-0.24-3c-0.04-0.43-0.16-0.87-0.11-1.28
		c0.06-0.39,0.35-0.76,0.45-1.15c0.42-1.83,0.78-3.66,1.22-5.48c0.11-0.41,0.55-0.73,0.74-1.14c0.71-1.57,1.51-3.12,2-4.76
		c0.45-1.45,1.69-2.44,2.1-3.76c1-3.26,3.3-5.53,5.5-7.89c1.26-1.35,2.65-2.57,3.89-3.93c2.62-2.89,5.6-5.33,9.05-7.14
		c3.4-1.79,6.84-3.55,10.39-5.04c1.78-0.75,3.83-0.87,5.76-1.25c1.92-0.38,3.85-0.74,5.78-1.09c0.67-0.11,1.35-0.16,2.06-0.24
		c-0.03-0.12-0.07-0.28-0.18-0.69c1.02,0.63,1.92,0.05,2.8,0.12c2.77,0.21,5.56,0.45,8.28,0.96c3.25,0.63,6.46,1.52,9.66,2.39
		c0.66,0.17,1.21,0.74,1.85,1.06c1.56,0.78,3.17,1.45,4.7,2.26c2.07,1.1,4.11,2.29,6.14,3.47c2.57,1.49,4.26,3.78,5.84,6.23
		c1.22,1.88,2.79,3.52,4.03,5.39c1.2,1.77,2.25,3.65,3.21,5.56c0.57,1.14,0.79,2.44,1.25,3.64c0.56,1.48,1.31,2.9,1.81,4.4
		c0.47,1.43,0.74,2.94,1.1,4.41c0.83,3.38,0.9,6.84,0.71,10.29c-0.2,3.65-0.59,7.26-1.84,10.75c-0.89,2.48-1.39,5.12-2.44,7.51
		c-1.04,2.34-2.63,4.43-3.82,6.71c-1.94,3.73-4.51,6.99-7.15,10.19c-1.25,1.52-3.04,2.6-4.56,3.91c-0.92,0.8-1.72,1.75-2.67,2.5
		c-3.05,2.42-6.53,4.11-10.1,5.52c-3.21,1.26-6.56,2.31-9.94,2.92c-3.23,0.58-6.56,0.64-9.89-0.05c-2.19-0.45-4.51-0.29-6.75-0.59
		c-2.06-0.28-4.09-0.76-6.11-1.25c-2.3-0.55-4.58-1.16-6.84-1.87c-2.98-0.92-5.81-2.29-8.2-4.24c-2.46-2.01-4.77-4.23-6.9-6.59
		c-2.03-2.26-3.74-4.81-5.56-7.26c-0.66-0.89-1.13-1.94-1.87-2.77c-2.04-2.3-2.52-5.3-3.47-8.02c-1.11-3.19-1.56-6.61-2.08-9.98
		c-0.28-1.8-0.1-3.68-0.15-5.52c-0.01-0.28-0.17-0.54-0.26-0.81C179.41,199.87,179.5,199.89,179.6,199.91z M257.82,196.06
		c0.09-0.02,0.18-0.05,0.28-0.07c-0.14-0.66-0.31-1.31-0.44-1.98c-0.21-1.08,0.11-2.23,0.01-3.22c-0.16-1.75-1.03-3.46-1.66-5.16
		c-1.55-4.17-4.12-7.63-7.55-10.43c-2.32-1.89-4.79-3.49-7.87-3.86c-1.75-0.21-3.5-0.45-5.22-0.81c-3.43-0.71-6.88-0.51-10.25-0.01
		c-3.45,0.5-6.61,2.07-9.66,3.78c-2.49,1.41-4.7,3.13-6.42,5.47c-1.47,2-3.39,3.72-4.58,5.87c-2.86,5.14-4.23,10.64-3.07,16.61
		c0.78,4.03,2.24,7.78,4.33,11.24c2.3,3.82,5.35,7.05,9.24,9.35c1.4,0.83,2.73,1.96,4.24,2.35c2.58,0.68,5.28,0.91,7.93,1.29
		c4.54,0.67,8.94,0.22,13.12-1.76c2.19-1.04,4.48-1.96,6.53-3.23c1.77-1.11,3.79-2.08,4.72-4.2c0.22-0.53,0.45-1.19,0.88-1.46
		c0.87-0.55,1.22-1.36,1.51-2.24c0.72-2.13,2.11-4.03,2.17-6.4c0.01-0.58,0.2-1.23,0.51-1.7c0.98-1.45,1.25-3.12,1.35-4.76
		c0.11-1.77-0.2-3.57-0.35-5.64C257.7,195.6,257.76,195.82,257.82,196.06z"/>
	<path class="st0" d="M851.4,243.5c-0.26,0-0.66,0.11-0.92-0.03c-1.34-0.68-2.68-1.34-3.94-2.15c-0.68-0.45-1.08-1.3-1.73-1.79
		c-1.02-0.79-2.15-1.39-3.23-2.1c-0.29-0.2-0.68-0.45-0.76-0.75c-0.39-1.81-1.92-2.8-3.05-4.01c-3.1-3.26-5.33-7.09-7.57-10.93
		c-1.6-2.72-3.02-5.57-4.2-8.49c-0.79-1.93-1.13-4.07-1.52-6.13c-0.42-2.34-0.87-4.72-0.92-7.08c-0.03-2.36,0.29-4.75,0.63-7.1
		c0.39-2.8,1.13-5.56,1.42-8.37c0.29-2.48,1.47-4.52,2.55-6.61c1.13-2.15,2.47-4.19,3.86-6.19c1-1.44,2.23-2.74,3.34-4.11
		c0.81-1.02,1.55-2.14,2.44-3.08c1.1-1.12,2.31-2.11,3.52-3.12c1.31-1.12,2.57-2.35,4.05-3.27c4.33-2.71,8.77-5.22,13.95-6.12
		c1.5-0.28,2.97-1.02,4.49-1.15c3.63-0.29,7.25-0.3,10.88-0.49c4.89-0.25,9.38,1.5,13.93,2.89c2.71,0.83,5.46,1.69,7.99,2.96
		c2.99,1.52,5.86,3.39,8.64,5.31c1.47,1.03,2.76,2.41,4.02,3.75c1.84,1.99,3.78,3.96,5.36,6.17c1.18,1.67,1.87,3.68,2.73,5.58
		c2.36,5.28,4.02,10.8,5.46,16.4c0.26,1.08,0.34,2.23,0.39,3.36c0.1,1.96,0.18,3.92,0.21,5.88c0,0.72-0.18,1.44-0.37,2.14
		c-1.16,4.44-2.23,8.9-3.55,13.29c-1.31,4.3-3.89,7.95-6.62,11.43c-2.15,2.73-4.41,5.39-6.8,7.88c-1.05,1.09-2.63,1.66-3.89,2.55
		c-2.81,2-5.94,3.39-8.98,4.87c-3.07,1.5-6.33,2.34-9.72,2.8c-1.58,0.22-3.1,0.67-4.68,0.88c-1.02,0.14-2.02,0.04-3.05,0.07
		c-1.42,0.04-2.86,0.24-4.26,0.13c-1.97-0.16-3.89-0.56-5.86-0.79c-0.87-0.08-1.76,0.14-2.63,0c-1.05-0.18-2.08-0.6-3.1-0.92
		c-1.39-0.43-2.84-0.78-4.15-1.34C854.26,245.1,852.87,244.28,851.4,243.5z M902.21,200.63c-0.11-0.02-0.21-0.05-0.32-0.07
		c-0.08-0.41-0.21-0.81-0.24-1.23c0-0.35,0.18-0.72,0.18-1.08c-0.03-0.91-0.24-1.81-0.21-2.72c0.13-5.62-1.76-10.54-5.33-14.76
		c-1.37-1.61-3.39-2.67-4.83-4.24c-2.18-2.36-5.1-3.31-7.88-4.28c-2.47-0.85-5.23-0.96-7.88-1.14c-4.76-0.32-9.35,0.85-13.74,2.36
		c-2.81,0.97-5.33,2.96-7.75,4.8c-2.76,2.1-4.89,4.85-6.67,7.84c-1.63,2.76-3.52,5.44-3.65,8.76c-0.08,2.06,0.26,4.15,0.6,6.21
		c0.79,5.18,2.34,10.07,5.91,14.11c1.84,2.1,3.47,4.44,5.6,6.21c2.78,2.33,5.91,4.16,9.62,4.85c2.26,0.39,4.41,1.52,6.75,1.39
		c2.73-0.16,5.49-0.38,8.14-0.91c1.92-0.38,3.7-1.33,5.57-2c3.5-1.27,6.36-3.52,8.67-6.35c1.31-1.6,3.07-3,3.31-5.29
		c2.15-2.42,2.5-5.57,3.42-8.49C901.89,203.35,901.97,201.97,902.21,200.63z"/>
	<path class="st0" d="M429.63,247.44c0.43-1.23,0.66-2.1,1.01-2.92c1.04-2.47,2.17-4.89,3.19-7.36c1.37-3.31,2.61-6.67,4.01-9.97
		c1.39-3.27,2.94-6.48,4.35-9.73c1.56-3.61,3.01-7.28,4.55-10.9c0.6-1.43,1.38-2.78,1.94-4.22c0.92-2.36,1.75-4.77,2.59-7.17
		c1.98-5.67,4.22-11.22,7.09-16.51c1.11-2.03,1.87-4.25,2.77-6.4c1.75-4.16,3.46-8.35,5.21-12.51c1.09-2.59,2.25-5.15,3.3-7.75
		c0.39-0.93,0.97-1.38,2-1.37c3.73,0.01,7.49-0.03,11.23,0c3.11,0.03,6.25,0.18,9.37,0.21c0.95,0.01,1.52,0.37,1.87,1.2
		c0.97,2.36,1.89,4.73,2.86,7.08c0.97,2.35,1.97,4.69,2.99,7.02c1.55,3.49,3.1,7,4.76,10.46c1.05,2.23,2.36,4.33,3.42,6.57
		c1.31,2.77,2.44,5.62,3.68,8.43c0.81,1.87,1.76,3.68,2.52,5.56c0.53,1.28,0.76,2.67,1.29,3.94c1.21,2.91,2.52,5.78,3.78,8.66
		c0.16,0.3,0.29,0.57,0.47,0.85c0.76,1.27,1.68,2.36,1.89,4.03c0.18,1.6,1.21,3.08,1.81,4.63c0.95,2.46,1.84,4.93,2.81,7.37
		c0.63,1.51,1.5,2.92,2.1,4.44c1.5,3.77,2.86,7.59,4.33,11.38c0.32,0.81,0.92,1.52,1.34,2.31c0.26,0.5,0.37,1.05,0.68,1.93
		c-2.78,0-5.25-0.07-7.7,0.01c-5.15,0.14-10.27,0.39-15.4,0.53c-0.39,0-0.97-0.51-1.16-0.92c-0.95-2.14-1.79-4.34-2.68-6.49
		c-1.23-2.96-2.5-5.88-3.81-8.8c-0.11-0.25-0.58-0.5-0.87-0.47c-2.23,0.13-4.47,0.47-6.7,0.51c-5.67,0.07-11.36,0.07-17.03,0.01
		c-6.15-0.05-12.29-0.14-18.43-0.25c-0.76-0.01-1.16,0.22-1.44,0.93c-1.14,2.94-2.38,5.86-3.5,8.8c-0.62,1.63-1.15,3.31-1.62,4.99
		c-0.32,1.16-1.09,1.72-2.79,1.75c-4.14,0.04-8.29,0.09-12.44,0.12C436.19,247.47,433.08,247.44,429.63,247.44z M483.09,175.69
		c-0.17,0.02-0.35,0.04-0.53,0.06c-3.74,11.22-7.5,22.45-11.32,33.9c4.09,0,8.21,0.05,12.32-0.01c4.17-0.07,8.35-0.23,12.84-0.35
		C491.91,197.95,487.49,186.82,483.09,175.69z"/>
	<path class="st0" d="M392.4,226.87c-0.11,2.04-0.25,3.84-0.3,5.65c-0.11,4.01-0.16,8.01-0.25,12.03c-0.01,0.63,0.06,1.29-0.11,1.88
		c-0.09,0.32-0.56,0.7-0.89,0.75c-1.41,0.16-2.84,0.2-4.26,0.26c-1.72,0.11-3.44,0.22-5.16,0.24c-1.41,0-2.82-0.21-4.22-0.21
		c-2.37-0.03-4.75,0.07-7.12,0.08c-1.37,0-2.73-0.08-4.1-0.11c-2.76,0-5.52,0.03-8.28,0c-2.65-0.04-5.29-0.18-7.93-0.18
		c-2.06,0-4.11,0.16-6.17,0.18c-1.29,0-2.58-0.21-3.87-0.21c-2.08,0-4.17,0.1-6.25,0.13c-0.88,0-1.76-0.17-2.63-0.13
		c-3.34,0.13-6.69,0.34-10.02,0.45c-1.12,0.03-2.34,0.08-3.33-0.34c-0.45-0.18-0.53-1.47-0.63-2.26c-0.11-0.79-0.04-1.6-0.05-2.42
		c-0.01-0.55-0.09-1.13,0-1.68c0.29-1.58,0.27-3.11-0.01-4.73c-0.26-1.55,0.01-3.19-0.02-4.78c-0.04-1.87-0.2-3.7-0.19-5.54
		c0.01-1.6,0.19-3.23,0.3-4.89c0.04,0-0.17-0.03-0.32-0.03c0.08-0.89,0.16-1.76,0.25-2.67c0.14,0.26,0.27,0.52,0.32,0.62
		c0-1.47,0.05-3.03-0.01-4.58c-0.08-1.92-0.6-3.89-0.29-5.73c0.46-2.75-0.3-5.37-0.2-8.05c0.09-2.67,0.28-5.35,0.29-8.03
		c0.01-1.8-0.2-3.61-0.31-5.41c0.07,0.14,0.16,0.33,0.31,0.65c0-1.9,0-3.65,0-5.54c0,0,0.19-0.02,0.42-0.05
		c-0.05-0.86,0.17-1.88-0.22-2.57c-0.61-1.11,0.05-2.14-0.24-3.22c-0.3-1.12-0.05-2.37-0.05-3.57c0-2.29-0.05-4.58,0.01-6.86
		c0.04-1.55,0.22-3.11,0.33-4.67c0.16-2.16,0.35-4.33,0.45-6.49c0.03-0.83-0.05-1.69-0.3-2.48c-0.33-1.04,0.34-1.16,0.98-1.21
		c2.06-0.21,4.14-0.45,6.21-0.49c3.75-0.08,7.51-0.02,11.26-0.02c1.49,0,1.87,0.37,1.9,1.83c0.09,3.23,0.21,6.46,0.22,9.7
		c0.01,2.4-0.18,4.8-0.21,7.2c-0.03,3.18,0.05,6.36-0.03,9.54c-0.06,2.17-0.34,4.33-0.48,6.51c-0.06,0.95-0.01,1.91,0.01,2.87
		c0.07,4.22,0.18,8.43,0.22,12.65c0.04,3.99,0.03,7.99,0.02,11.98c-0.01,3.11-0.02,6.21-0.07,9.32c-0.01,1.1-0.15,2.19-0.12,3.28
		c0.01,0.7,0.32,1.21,1.2,1.2c3.64-0.03,7.27-0.01,10.91-0.01c7.51,0.01,15.03,0.03,22.53,0.03c6.38,0,12.78-0.01,19.17-0.01
		C391.55,226.73,392.01,226.82,392.4,226.87z"/>
</g>
<g>
	<g>
		<g>
			<path class="st1" d="M131.9,174.87c-1.41-1.48-2.61-2.86-3.93-4.12c-1.5-1.42-3.04-2.96-5.07-3.47c-1.7-0.43-3.54-0.28-5.31-0.44
				c-1.1-0.09-2.17-0.36-3.26-0.41c-0.88-0.05-1.76,0.17-2.65,0.2c-1.51,0.06-3.03,0.09-4.55,0.08c-2.88-0.01-5.76-0.05-8.64-0.09
				c-4.66-0.07-9.33-0.12-14-0.23c-3.59-0.09-7.17-0.36-10.76-0.37c-1.11-0.01-2.27,0.42-3.31,0.88c-1.18,0.52-1.2,1.45-0.14,2.19
				c0.91,0.64,1.89,1.2,2.86,1.73c2.87,1.58,5.73,3.17,8.65,4.66c3.38,1.73,6.79,3.38,10.21,5.04c6.36,3.09,12.78,6.08,19.09,9.29
				c5.41,2.75,10.75,5.66,16.02,8.68c3.07,1.76,6.04,3.73,8.9,5.83c1.85,1.35,3.01,3.38,3.7,5.6c1.64,5.29,1.87,10.72,1.4,16.16
				c-0.35,4.15-1.59,8.07-4.09,11.45c-2.48,3.35-6.02,5.28-9.91,6.52c-1.19,0.38-2.58,0.14-3.88,0.16c-3.33,0-6.66-0.01-9.99-0.03
				c-3.29,0-6.59,0.05-9.89-0.01c-2.72-0.05-5.43-0.3-8.14-0.33c-4.3-0.03-8.58,0.09-12.87,0.12c-3.12,0.01-6.24,0.12-9.35-0.04
				c-3.17-0.14-6.33-0.5-9.48-0.85c-1.62-0.18-3.37-0.25-4.81-0.91c-1.96-0.92-3.78-2.21-5.49-3.58c-1.97-1.58-3.82-3.34-5.57-5.15
				c-1.31-1.37-2.37-2.97-3.63-4.57c2.48-2.08,4.92-4.11,7.54-6.31c-0.1-0.03,0.16,0.05,0.42,0.11c-0.08-0.08-0.16-0.16-0.24-0.24
				c0.62-0.74,1.16-1.58,1.89-2.18c1.49-1.22,3.09-2.29,4.62-3.44c0.41-0.32,0.66-0.83,1.07-1.15c0.92-0.75,1.85-0.64,2.5,0.35
				c0.96,1.46,2.11,2.75,3.38,3.98c1.94,1.89,4.23,2.61,6.77,2.71c2.84,0.11,5.69,0.11,8.53,0.03c3.55-0.09,7.11-0.45,10.67-0.42
				c3.25,0,6.5,0.39,9.76,0.58c1.73,0.11,3.47,0.16,5.2,0.18c4.21,0.05,8.42,0.1,12.62,0.16c1.36,0,2.73,0.08,4.07-0.03
				c0.55-0.04,1.06-0.47,1.58-0.74c0.04-0.13,0.07-0.29,0.11-0.43c-1.72-1.06-3.39-2.21-5.16-3.17c-3.34-1.79-6.76-3.45-10.11-5.21
				c-0.91-0.48-1.69-1.2-2.6-1.68c-1.58-0.84-3.24-1.56-4.85-2.37c-2.34-1.19-4.64-2.42-6.97-3.63c-2.5-1.29-5.01-2.57-7.51-3.88
				c-2.73-1.43-5.39-3.02-8.18-4.3c-2.72-1.25-5.15-2.9-7.69-4.42c-2.18-1.3-4.56-2.25-6.78-3.49c-2.87-1.61-5.69-3.33-7.82-5.92
				c-0.86-1.04-1.81-2.08-2.36-3.29c-0.99-2.17-2.05-4.33-2.09-6.84c-0.03-1.14-0.72-2.27-0.71-3.4c0.03-1.88,0.35-3.76,0.59-5.63
				c0.23-1.73,0.42-3.47,0.79-5.16c0.16-0.75,0.72-1.42,1.15-2.1c0.52-0.83,1.07-1.66,1.64-2.46c0.54-0.78,1.06-1.58,1.72-2.26
				c1.02-1.08,2.1-2.13,3.26-3.03c0.79-0.62,1.75-1,2.67-1.44c1.1-0.52,2.2-1.04,3.34-1.44c3.42-1.22,6.99-1.25,10.56-1.26
				c3.47,0,6.96-0.22,10.43-0.19c2.92,0.03,5.85,0.37,8.76,0.42c2.91,0.05,5.82-0.13,8.73-0.13c1.3-0.01,2.61,0.23,3.91,0.22
				c2.37-0.01,4.75-0.14,7.13-0.18c0.95-0.01,1.9,0.09,2.85,0.13c3.33,0.17,6.67,0.26,10,0.5c3.31,0.25,6.36,1.44,9.02,3.34
				c1.9,1.35,3.49,3.14,5.16,4.79c1.48,1.47,2.87,3.03,4.31,4.54c0.79,0.83,0.68,1.31-0.28,2.09c-1.71,1.38-3.14,3.1-4.77,4.58
				c-1.72,1.56-3.54,3.02-5.31,4.53c-0.87,0.75-1.73,1.51-2.61,2.25C133.81,173.31,132.86,174.08,131.9,174.87z"/>
		</g>
		<g>
			<path class="st1" d="M747.39,168.8c-3.28,0-6.59,0.05-9.88-0.02c-2.5-0.05-4.99-0.41-7.49-0.39c-5.81,0.07-11.64,0.33-17.47,0.41
				c-3.02,0.04-6.07-0.11-9.09-0.24c-2.05-0.09-4.1-0.41-6.15-0.43c-1.58-0.01-3.18,0.38-4.78,0.44c-1.21,0.04-2.47-0.09-3.65-0.32
				c-0.29-0.05-0.63-0.81-0.6-1.22c0.05-1.11,0.39-2.22,0.42-3.33c0.08-2.7,0-5.41,0.05-8.1c0-1.59,0.16-3.17,0.16-4.76
				c0.03-0.8,0-1.61-0.16-2.39c-0.21-1.21,0.03-1.58,1.23-1.59c2.23-0.01,4.44,0.06,6.65-0.02c1.52-0.05,3.02-0.37,4.54-0.42
				c1.26-0.05,2.5,0.16,3.76,0.18c2.94,0.04,5.91,0.04,8.88,0.04c2.6,0,5.23-0.05,7.86-0.01c1.08,0.01,2.18,0.27,3.28,0.25
				c2.52-0.03,5.07-0.21,7.59-0.26c5.62-0.11,11.27-0.2,16.89-0.24c2.1-0.02,4.2,0.2,6.28,0.21c1.42,0.01,2.84-0.18,4.28-0.19
				c1.16-0.01,2.31,0.22,3.49,0.18c2.68-0.1,5.39-0.37,8.07-0.42c2.26-0.05,4.52,0.07,6.78,0.23c0.92,0.06,1.5,0.64,1.47,1.72
				c-0.05,1.34,0.03,2.68,0.03,4.02c0.1,4.8,0.21,9.61,0.29,14.41c0,0.2-0.21,0.43-0.37,0.58c-3.81,3.67-7.33,7.63-11.64,10.8
				c-2.5,1.85-4.65,4.2-6.94,6.33c-1.34,1.23-2.65,2.44-3.97,3.69c-1.42,1.34-2.81,2.72-4.23,4.08c-3.21,3.11-6.44,6.22-9.64,9.35
				c-3.13,3.03-6.33,5.96-9.25,9.16c-2.39,2.61-5.02,4.91-7.72,7.17c-1.68,1.39-3.05,3.18-4.52,4.76c19.05,0,38.12,0,57.35,0
				c0.13,1.37,0.58,2.99,0.32,4.47c-0.42,2.15,0.11,4.2,0.16,6.31c0.03,2.06-0.05,4.12,0.03,6.16c0.05,1.33,0.32,2.64,0.53,4.31
				c-0.55,0.17-1.34,0.64-2.15,0.67c-2.78,0.09-5.6,0.07-8.41,0.03c-3.91-0.05-7.86-0.17-11.77-0.24
				c-3.36-0.04-6.73-0.03-10.09-0.05c-5.41-0.05-10.82-0.16-16.24-0.17c-2.23-0.01-4.44,0.16-6.67,0.22
				c-3.23,0.08-6.44-0.26-9.72,0.16c-2.34,0.29-4.78-0.29-7.2-0.43c-1.21-0.08-2.44-0.03-3.65-0.08c-2.52-0.09-5.02-0.28-7.54-0.34
				c-0.92-0.04-1.84,0.2-2.76,0.2c-1.58-0.03-3.15-0.09-4.68-0.29c-0.34-0.03-0.81-0.67-0.84-1.05c-0.11-2.34-0.03-4.68-0.13-6.99
				c-0.24-4.02-0.55-8.03-0.87-12.03c-0.08-0.79,0.21-1.29,0.79-1.75c1.23-0.96,2.52-1.88,3.65-2.96c2.71-2.65,5.54-5.08,8.64-7.28
				c2.63-1.87,4.99-4.15,7.41-6.33c3.18-2.86,6.28-5.81,9.43-8.68c1.89-1.71,3.86-3.31,5.75-5.03c3.86-3.58,7.65-7.26,11.59-10.8
				c2.34-2.13,4.94-3.98,7.33-6.07c1.89-1.66,3.65-3.49,5.46-5.25C747.52,169.05,747.47,168.92,747.39,168.8z"/>
		</g>
		<g>
			<path class="st1" d="M591.2,222.47c1.76,0,3.13-0.01,4.49,0c5.73,0.08,11.45,0.16,17.18,0.24c5.52,0.08,11.03,0.21,16.55,0.22
				c2.94,0.01,5.88-0.2,8.83-0.2c2.89,0,5.78,0.16,8.67,0.21c0.74,0.01,1.08,0.34,1.05,1c-0.03,3.1-0.08,6.2-0.16,9.3
				c-0.08,2.31-0.16,4.65-0.32,6.96c-0.16,2.18-0.21,2.45-2.52,2.52c-0.95,0.03-1.92,0.17-2.89,0.24c-1.05,0.08-2.1,0.21-3.18,0.2
				c-3.34-0.04-6.65-0.16-9.98-0.17c-1.87,0-3.76,0.13-5.65,0.21c-2.29,0.08-4.57,0.18-6.86,0.21c-1.26,0-2.55-0.22-3.81-0.18
				c-2.71,0.08-5.39,0.29-8.09,0.39c-1.18,0.03-2.39-0.13-3.6-0.18c-2.02-0.08-4.05-0.21-6.07-0.22c-4.02-0.04-8.07-0.04-12.09-0.01
				c-3.34,0.03-6.65,0.14-9.96,0.18c-2.71,0.05-5.41,0.07-8.12,0.03c-1.55,0-3.07-0.11-4.6-0.26c-0.32-0.03-0.74-0.46-0.84-0.79
				c-0.26-0.84-0.47-1.71-0.47-2.58c-0.13-4.49-0.08-8.98-0.32-13.48c-0.13-2.54,1.21-4.19,2.81-5.7c2.57-2.39,5.23-4.66,7.88-6.96
				c4.05-3.51,8.12-6.97,12.14-10.5c1.39-1.23,2.63-2.67,4.02-3.91c2.52-2.25,5.12-4.43,7.67-6.64c0.29-0.24,0.58-0.45,0.84-0.69
				c2.52-2.35,5.02-4.68,7.51-7.06c1.92-1.85,3.78-3.8,5.7-5.66c1.71-1.64,3.52-3.18,5.25-4.81c1.6-1.56,3.18-3.19,4.78-4.8
				c0.18-0.19,0.29-0.46,0.42-0.65c-4.78,0.13-9.51,0.3-14.24,0.36c-1.44,0.02-2.86-0.34-4.31-0.4c-1.68-0.07-3.36-0.01-5.04-0.01
				c-0.97,0-1.97,0.02-2.97-0.01c-2.6-0.09-5.2-0.21-7.8-0.26c-3.97-0.08-7.93-0.13-11.9-0.14c-2.15-0.01-4.28,0.16-6.44,0.09
				c-1.79-0.05-3.6-0.26-5.39-0.54c-0.34-0.05-0.87-0.77-0.84-1.15c0.24-3.74,0.66-7.47,0.89-11.22c0.13-2.4,0.05-4.82,0.05-7.23
				c0-1,0.76-1.75,2.02-1.76c1.05-0.01,2.08,0.18,3.13,0.19c0.92,0.01,1.84-0.2,2.76-0.19c2.44,0.04,4.89,0.18,7.33,0.21
				c1,0.01,2-0.23,3-0.21c7.62,0.06,15.26,0.16,22.88,0.22c3.26,0.03,6.49-0.03,9.75,0.02c2.02,0.02,4.05,0.25,6.04,0.21
				c3.18-0.06,6.33-0.36,9.51-0.36c3.49,0,6.99,0.25,10.46,0.34c2.52,0.07,5.07,0,7.59,0.05c1.26,0.02,2.5,0.12,3.73,0.24
				c1.18,0.13,0.87,1.16,0.92,1.81c0.21,3.48,0.37,6.97,0.47,10.45c0.03,1.67-0.08,3.35-0.08,5.02c-0.03,0.72-0.08,1.45,0.11,2.13
				c0.55,2.34-0.66,3.7-2.34,5.08c-4.07,3.34-8.04,6.82-11.98,10.29c-3.81,3.32-7.54,6.7-11.27,10.06c-2.84,2.55-5.67,5.11-8.46,7.7
				c-3.02,2.8-5.99,5.66-8.98,8.49c-2.5,2.36-5.02,4.7-7.54,7.07C596.19,217.72,593.82,219.96,591.2,222.47z"/>
		</g>
		<g>
			<g>
				<path class="st1" d="M173.35,195.9c0.18-1.15,0.45-2.3,0.51-3.45c0.05-1-0.14-2-0.24-3c-0.04-0.43-0.16-0.87-0.11-1.28
					c0.06-0.39,0.35-0.76,0.45-1.15c0.42-1.83,0.77-3.67,1.22-5.48c0.11-0.41,0.55-0.73,0.74-1.14c0.71-1.57,1.51-3.12,2-4.76
					c0.45-1.45,1.69-2.44,2.1-3.76c1-3.26,3.3-5.53,5.5-7.89c1.26-1.35,2.65-2.57,3.89-3.93c2.62-2.89,5.6-5.33,9.05-7.14
					c3.4-1.79,6.84-3.55,10.39-5.04c1.78-0.75,3.83-0.87,5.76-1.25c1.92-0.38,3.85-0.74,5.78-1.09c0.67-0.11,1.35-0.16,2.06-0.24
					c-0.03-0.12-0.07-0.28-0.18-0.69c1.02,0.63,1.92,0.05,2.8,0.12c2.77,0.21,5.56,0.45,8.28,0.96c3.25,0.63,6.46,1.52,9.66,2.39
					c0.66,0.17,1.21,0.74,1.85,1.06c1.56,0.78,3.17,1.45,4.7,2.26c2.07,1.1,4.11,2.29,6.14,3.47c2.57,1.49,4.26,3.78,5.84,6.23
					c1.22,1.88,2.79,3.52,4.03,5.39c1.2,1.77,2.25,3.65,3.21,5.56c0.57,1.14,0.79,2.44,1.25,3.64c0.56,1.48,1.31,2.9,1.81,4.4
					c0.47,1.43,0.74,2.94,1.1,4.41c0.83,3.38,0.9,6.84,0.71,10.29c-0.2,3.65-0.59,7.26-1.84,10.75c-0.89,2.48-1.39,5.12-2.44,7.51
					c-1.04,2.34-2.63,4.43-3.82,6.71c-1.94,3.73-4.51,6.99-7.15,10.19c-1.25,1.52-3.04,2.6-4.56,3.91c-0.92,0.8-1.72,1.75-2.67,2.5
					c-3.05,2.42-6.53,4.11-10.1,5.52c-3.21,1.26-6.56,2.31-9.94,2.92c-3.23,0.58-6.56,0.64-9.89-0.05
					c-2.19-0.45-4.51-0.29-6.75-0.59c-2.06-0.28-4.09-0.76-6.11-1.25c-2.3-0.55-4.58-1.16-6.84-1.87c-2.98-0.92-5.81-2.29-8.2-4.24
					c-2.46-2.01-4.77-4.23-6.9-6.59c-2.03-2.26-3.74-4.81-5.56-7.26c-0.66-0.89-1.13-1.94-1.87-2.77c-2.04-2.3-2.52-5.3-3.47-8.02
					c-1.11-3.19-1.56-6.61-2.08-9.98c-0.28-1.8-0.1-3.68-0.15-5.52c-0.01-0.28-0.17-0.54-0.26-0.81
					C173.16,195.86,173.25,195.88,173.35,195.9z M251.57,192.05c0.09-0.02,0.18-0.05,0.28-0.07c-0.14-0.66-0.31-1.31-0.44-1.98
					c-0.21-1.08,0.11-2.23,0.01-3.22c-0.16-1.75-1.03-3.46-1.66-5.16c-1.55-4.17-4.12-7.63-7.55-10.43
					c-2.32-1.89-4.79-3.49-7.87-3.86c-1.75-0.21-3.5-0.45-5.22-0.81c-3.43-0.71-6.88-0.51-10.25-0.01c-3.45,0.5-6.61,2.07-9.66,3.78
					c-2.49,1.41-4.7,3.13-6.42,5.47c-1.47,2-3.39,3.72-4.58,5.87c-2.86,5.14-4.23,10.64-3.07,16.61c0.78,4.03,2.24,7.78,4.33,11.24
					c2.3,3.82,5.35,7.05,9.24,9.35c1.4,0.83,2.73,1.96,4.24,2.35c2.58,0.68,5.28,0.91,7.93,1.29c4.54,0.67,8.94,0.22,13.12-1.76
					c2.19-1.04,4.48-1.96,6.53-3.23c1.77-1.11,3.79-2.08,4.72-4.2c0.22-0.53,0.45-1.19,0.88-1.46c0.87-0.55,1.22-1.36,1.51-2.24
					c0.72-2.13,2.11-4.03,2.17-6.4c0.01-0.58,0.2-1.23,0.51-1.7c0.98-1.45,1.25-3.12,1.35-4.76c0.11-1.77-0.2-3.57-0.35-5.64
					C251.45,191.59,251.52,191.82,251.57,192.05z"/>
			</g>
		</g>
		<g>
			<g>
				<path class="st1" d="M845.15,239.5c-0.26,0-0.66,0.11-0.92-0.03c-1.34-0.68-2.68-1.34-3.94-2.15c-0.68-0.45-1.08-1.3-1.73-1.79
					c-1.02-0.79-2.15-1.39-3.23-2.1c-0.29-0.2-0.68-0.45-0.76-0.75c-0.39-1.81-1.92-2.8-3.05-4.01c-3.1-3.26-5.33-7.09-7.57-10.93
					c-1.6-2.72-3.02-5.57-4.2-8.49c-0.79-1.93-1.13-4.07-1.52-6.13c-0.42-2.34-0.87-4.72-0.92-7.08c-0.03-2.36,0.29-4.75,0.63-7.1
					c0.39-2.8,1.13-5.56,1.42-8.37c0.29-2.48,1.47-4.52,2.55-6.61c1.13-2.15,2.47-4.19,3.86-6.19c1-1.44,2.23-2.74,3.34-4.11
					c0.81-1.02,1.55-2.14,2.44-3.08c1.1-1.12,2.31-2.11,3.52-3.12c1.31-1.12,2.57-2.35,4.05-3.27c4.33-2.71,8.77-5.22,13.95-6.12
					c1.5-0.28,2.97-1.02,4.49-1.15c3.63-0.29,7.25-0.3,10.88-0.49c4.89-0.25,9.38,1.5,13.93,2.89c2.71,0.83,5.46,1.69,7.99,2.96
					c2.99,1.52,5.86,3.39,8.64,5.31c1.47,1.03,2.76,2.41,4.02,3.75c1.84,1.99,3.78,3.96,5.36,6.17c1.18,1.67,1.87,3.68,2.73,5.58
					c2.36,5.28,4.02,10.8,5.46,16.4c0.26,1.08,0.34,2.23,0.39,3.36c0.1,1.96,0.18,3.92,0.21,5.88c0,0.72-0.18,1.44-0.37,2.14
					c-1.16,4.44-2.23,8.9-3.55,13.29c-1.31,4.3-3.89,7.95-6.62,11.43c-2.15,2.73-4.41,5.39-6.8,7.88c-1.05,1.09-2.63,1.66-3.89,2.55
					c-2.81,2-5.94,3.39-8.99,4.87c-3.07,1.5-6.33,2.34-9.72,2.8c-1.58,0.22-3.1,0.67-4.68,0.88c-1.02,0.14-2.02,0.04-3.05,0.07
					c-1.42,0.04-2.86,0.24-4.26,0.13c-1.97-0.16-3.89-0.56-5.86-0.79c-0.87-0.08-1.76,0.14-2.63,0c-1.05-0.18-2.08-0.6-3.1-0.92
					c-1.39-0.43-2.84-0.78-4.15-1.34C848.01,241.1,846.62,240.27,845.15,239.5z M895.96,196.63c-0.11-0.02-0.21-0.05-0.32-0.07
					c-0.08-0.41-0.21-0.81-0.24-1.23c0-0.35,0.18-0.72,0.18-1.08c-0.03-0.91-0.24-1.81-0.21-2.72c0.13-5.62-1.76-10.54-5.33-14.76
					c-1.37-1.61-3.39-2.67-4.83-4.24c-2.18-2.36-5.1-3.31-7.88-4.28c-2.47-0.85-5.23-0.96-7.88-1.14
					c-4.76-0.32-9.35,0.85-13.74,2.36c-2.81,0.97-5.33,2.96-7.75,4.8c-2.76,2.1-4.89,4.85-6.67,7.84c-1.63,2.76-3.52,5.44-3.65,8.76
					c-0.08,2.06,0.26,4.15,0.6,6.21c0.79,5.18,2.34,10.07,5.91,14.11c1.84,2.1,3.47,4.44,5.6,6.21c2.78,2.33,5.91,4.16,9.62,4.85
					c2.26,0.39,4.41,1.52,6.75,1.39c2.73-0.16,5.49-0.38,8.14-0.91c1.92-0.38,3.7-1.33,5.57-2c3.5-1.27,6.36-3.52,8.67-6.35
					c1.31-1.6,3.07-3,3.31-5.29c2.15-2.42,2.5-5.57,3.42-8.49C895.64,199.34,895.72,197.96,895.96,196.63z"/>
			</g>
		</g>
		<g>
			<g>
				<path class="st1" d="M423.38,243.44c0.43-1.23,0.66-2.1,1.01-2.92c1.04-2.47,2.17-4.89,3.19-7.36c1.37-3.31,2.61-6.67,4.01-9.97
					c1.39-3.27,2.94-6.48,4.35-9.73c1.56-3.61,3.01-7.28,4.55-10.9c0.6-1.43,1.38-2.78,1.94-4.22c0.92-2.36,1.75-4.77,2.59-7.17
					c1.98-5.67,4.22-11.22,7.09-16.51c1.11-2.03,1.87-4.25,2.77-6.4c1.75-4.16,3.46-8.35,5.21-12.51c1.09-2.59,2.25-5.15,3.3-7.75
					c0.39-0.93,0.97-1.38,2-1.37c3.73,0.01,7.49-0.03,11.23,0c3.11,0.04,6.25,0.18,9.37,0.21c0.95,0.01,1.52,0.37,1.87,1.2
					c0.97,2.36,1.89,4.73,2.86,7.08c0.97,2.35,1.97,4.69,2.99,7.02c1.55,3.49,3.1,7,4.76,10.46c1.05,2.23,2.36,4.33,3.42,6.57
					c1.31,2.77,2.44,5.62,3.68,8.43c0.81,1.87,1.76,3.68,2.52,5.56c0.53,1.28,0.76,2.67,1.29,3.94c1.21,2.91,2.52,5.78,3.78,8.66
					c0.16,0.3,0.29,0.57,0.47,0.85c0.76,1.27,1.68,2.36,1.89,4.03c0.18,1.6,1.21,3.08,1.81,4.63c0.95,2.46,1.84,4.93,2.81,7.37
					c0.63,1.51,1.5,2.92,2.1,4.44c1.5,3.77,2.86,7.59,4.33,11.38c0.32,0.81,0.92,1.52,1.34,2.31c0.26,0.5,0.37,1.05,0.68,1.93
					c-2.78,0-5.25-0.07-7.7,0.01c-5.15,0.14-10.27,0.39-15.4,0.53c-0.39,0-0.97-0.51-1.16-0.92c-0.95-2.14-1.79-4.34-2.68-6.49
					c-1.23-2.96-2.5-5.88-3.81-8.8c-0.11-0.25-0.58-0.5-0.87-0.47c-2.23,0.13-4.47,0.47-6.7,0.51c-5.67,0.07-11.36,0.07-17.03,0.01
					c-6.15-0.05-12.29-0.14-18.43-0.25c-0.76-0.01-1.16,0.22-1.44,0.93c-1.14,2.94-2.38,5.86-3.5,8.8
					c-0.62,1.63-1.15,3.31-1.62,4.99c-0.32,1.16-1.09,1.72-2.79,1.75c-4.14,0.04-8.29,0.09-12.44,0.12
					C429.95,243.46,426.83,243.44,423.38,243.44z M476.84,171.69c-0.17,0.02-0.35,0.04-0.53,0.06c-3.74,11.22-7.5,22.45-11.32,33.9
					c4.09,0,8.21,0.05,12.32-0.01c4.17-0.07,8.35-0.23,12.84-0.35C485.66,193.95,481.24,182.81,476.84,171.69z"/>
			</g>
		</g>
		<g>
			<path class="st1" d="M386.15,222.87c-0.11,2.04-0.25,3.84-0.3,5.65c-0.11,4.01-0.16,8.01-0.25,12.03
				c-0.01,0.63,0.06,1.29-0.11,1.88c-0.09,0.32-0.56,0.7-0.89,0.75c-1.41,0.16-2.84,0.2-4.26,0.26c-1.72,0.11-3.44,0.22-5.16,0.24
				c-1.41,0-2.82-0.21-4.22-0.21c-2.37-0.03-4.75,0.07-7.12,0.08c-1.37,0-2.73-0.08-4.1-0.11c-2.76,0-5.52,0.03-8.28,0
				c-2.65-0.04-5.29-0.18-7.93-0.18c-2.06,0-4.11,0.16-6.17,0.18c-1.29,0-2.58-0.21-3.87-0.21c-2.08,0-4.17,0.11-6.25,0.13
				c-0.88,0-1.76-0.17-2.63-0.13c-3.34,0.13-6.69,0.34-10.02,0.45c-1.12,0.03-2.34,0.08-3.33-0.34c-0.45-0.18-0.53-1.47-0.63-2.26
				c-0.11-0.79-0.04-1.6-0.05-2.42c-0.01-0.55-0.09-1.13,0-1.68c0.29-1.58,0.27-3.11-0.01-4.73c-0.26-1.55,0.01-3.19-0.02-4.78
				c-0.04-1.87-0.2-3.7-0.19-5.54c0.01-1.6,0.19-3.23,0.3-4.89c0.04,0-0.17-0.03-0.32-0.03c0.08-0.89,0.16-1.76,0.25-2.67
				c0.14,0.26,0.27,0.52,0.32,0.62c0-1.47,0.05-3.03-0.01-4.58c-0.08-1.92-0.6-3.89-0.29-5.73c0.46-2.75-0.3-5.37-0.2-8.05
				c0.09-2.67,0.28-5.35,0.29-8.03c0.01-1.8-0.2-3.61-0.31-5.41c0.07,0.14,0.16,0.33,0.31,0.65c0-1.9,0-3.65,0-5.54
				c0,0,0.19-0.02,0.42-0.05c-0.05-0.86,0.17-1.88-0.22-2.57c-0.61-1.11,0.05-2.14-0.24-3.22c-0.3-1.12-0.05-2.37-0.05-3.57
				c0-2.29-0.05-4.58,0.01-6.86c0.04-1.55,0.22-3.11,0.33-4.67c0.16-2.16,0.35-4.33,0.45-6.49c0.03-0.83-0.05-1.69-0.3-2.48
				c-0.33-1.04,0.34-1.16,0.98-1.21c2.06-0.21,4.14-0.45,6.21-0.49c3.75-0.08,7.51-0.02,11.26-0.02c1.49,0,1.87,0.37,1.9,1.83
				c0.09,3.23,0.21,6.46,0.22,9.7c0.01,2.4-0.18,4.8-0.21,7.2c-0.03,3.18,0.05,6.36-0.03,9.54c-0.06,2.17-0.34,4.33-0.48,6.51
				c-0.06,0.95-0.01,1.91,0.01,2.87c0.07,4.22,0.18,8.43,0.22,12.65c0.04,3.99,0.03,7.99,0.02,11.98c-0.01,3.11-0.02,6.21-0.07,9.32
				c-0.01,1.1-0.15,2.19-0.12,3.28c0.01,0.7,0.32,1.21,1.2,1.2c3.64-0.03,7.27-0.01,10.91-0.01c7.51,0.01,15.03,0.03,22.53,0.03
				c6.38,0,12.78-0.01,19.17-0.01C385.3,222.72,385.76,222.81,386.15,222.87z"/>
		</g>
	</g>
</g>
<g>
	<g>
		<g>
			<path class="st1" d="M105.99,57.84c-0.99-1.05-1.84-2.02-2.77-2.9c-1.06-1-2.14-2.09-3.57-2.45c-1.2-0.3-2.5-0.2-3.74-0.31
				c-0.77-0.06-1.53-0.25-2.3-0.29c-0.62-0.03-1.24,0.12-1.87,0.14c-1.07,0.04-2.13,0.06-3.21,0.05c-2.03-0.01-4.06-0.03-6.1-0.06
				c-3.29-0.05-6.58-0.08-9.88-0.16c-2.53-0.07-5.06-0.26-7.59-0.26c-0.78-0.01-1.6,0.3-2.33,0.62c-0.83,0.37-0.85,1.02-0.1,1.55
				c0.64,0.45,1.33,0.84,2.02,1.22c2.02,1.11,4.04,2.24,6.1,3.29c2.38,1.22,4.79,2.38,7.2,3.56c4.48,2.18,9.01,4.28,13.46,6.55
				c3.82,1.94,7.58,4,11.3,6.12c2.17,1.24,4.26,2.63,6.28,4.12c1.3,0.95,2.12,2.39,2.61,3.95c1.16,3.73,1.32,7.56,0.99,11.39
				c-0.25,2.93-1.12,5.69-2.89,8.08c-1.75,2.36-4.25,3.72-6.99,4.6c-0.84,0.27-1.82,0.1-2.73,0.11c-2.35,0-4.7-0.01-7.05-0.02
				c-2.32,0-4.65,0.04-6.98-0.01c-1.92-0.03-3.83-0.21-5.74-0.23c-3.03-0.02-6.05,0.07-9.08,0.08c-2.2,0.01-4.4,0.09-6.59-0.02
				c-2.23-0.1-4.46-0.35-6.69-0.6c-1.14-0.13-2.38-0.18-3.39-0.64c-1.38-0.65-2.67-1.56-3.87-2.52c-1.39-1.11-2.7-2.36-3.93-3.63
				c-0.92-0.96-1.67-2.09-2.56-3.22c1.75-1.46,3.47-2.9,5.32-4.45c-0.07-0.02,0.11,0.04,0.3,0.08c-0.06-0.06-0.11-0.11-0.17-0.17
				c0.44-0.52,0.82-1.11,1.33-1.54c1.05-0.86,2.18-1.61,3.26-2.43c0.29-0.22,0.47-0.58,0.76-0.81c0.65-0.53,1.3-0.46,1.76,0.25
				c0.68,1.03,1.49,1.94,2.38,2.8c1.37,1.34,2.98,1.85,4.78,1.91c2,0.08,4.01,0.08,6.02,0.02c2.51-0.06,5.02-0.32,7.52-0.3
				c2.29,0,4.59,0.28,6.88,0.41c1.22,0.07,2.45,0.11,3.67,0.13c2.97,0.04,5.94,0.07,8.9,0.11c0.96,0,1.92,0.06,2.87-0.02
				c0.39-0.03,0.75-0.33,1.12-0.52c0.03-0.09,0.05-0.2,0.08-0.3c-1.21-0.75-2.39-1.56-3.64-2.24c-2.35-1.26-4.77-2.43-7.13-3.67
				c-0.64-0.34-1.19-0.85-1.83-1.19c-1.12-0.59-2.29-1.1-3.42-1.67c-1.65-0.84-3.28-1.71-4.92-2.56c-1.76-0.91-3.53-1.82-5.29-2.74
				c-1.92-1.01-3.8-2.13-5.77-3.03c-1.92-0.88-3.63-2.05-5.42-3.12c-1.54-0.92-3.22-1.59-4.78-2.47c-2.02-1.13-4.01-2.35-5.51-4.17
				c-0.61-0.74-1.28-1.47-1.66-2.32c-0.7-1.53-1.44-3.06-1.47-4.83c-0.02-0.8-0.51-1.6-0.5-2.4c0.02-1.33,0.25-2.65,0.42-3.97
				c0.16-1.22,0.3-2.45,0.56-3.64c0.12-0.53,0.51-1,0.81-1.48c0.37-0.59,0.75-1.17,1.16-1.73c0.39-0.54,0.75-1.12,1.21-1.59
				c0.72-0.76,1.48-1.5,2.3-2.14c0.55-0.43,1.24-0.71,1.88-1.01c0.78-0.37,1.55-0.73,2.36-1.02c2.41-0.85,4.93-0.88,7.45-0.88
				c2.45-0.01,4.91-0.16,7.36-0.14c2.06,0.02,4.12,0.26,6.18,0.3c2.05,0.03,4.1-0.09,6.16-0.1c0.92,0,1.84,0.17,2.76,0.16
				c1.67,0,3.35-0.1,5.03-0.12c0.67-0.01,1.34,0.06,2.01,0.09c2.35,0.11,4.7,0.19,7.05,0.35c2.33,0.17,4.49,1.01,6.37,2.36
				c1.34,0.95,2.46,2.21,3.64,3.37c1.04,1.04,2.03,2.14,3.04,3.21c0.56,0.58,0.48,0.93-0.2,1.47c-1.21,0.97-2.21,2.18-3.36,3.23
				c-1.22,1.1-2.5,2.13-3.75,3.19c-0.62,0.53-1.22,1.07-1.84,1.59C107.35,56.74,106.67,57.29,105.99,57.84z"/>
		</g>
		<g>
			<path class="st1" d="M318.6,91.41c1.24,0,2.2-0.01,3.17,0c4.04,0.05,8.08,0.11,12.12,0.17c3.89,0.06,7.78,0.15,11.67,0.16
				c2.08,0.01,4.15-0.14,6.23-0.14c2.04,0,4.08,0.11,6.12,0.15c0.52,0.01,0.76,0.24,0.74,0.71c-0.02,2.19-0.06,4.37-0.11,6.56
				c-0.06,1.63-0.11,3.28-0.22,4.91c-0.11,1.54-0.15,1.73-1.78,1.78c-0.67,0.02-1.36,0.12-2.04,0.16c-0.74,0.06-1.48,0.15-2.24,0.14
				c-2.35-0.03-4.69-0.11-7.04-0.12c-1.32,0-2.65,0.09-3.98,0.15c-1.61,0.05-3.22,0.13-4.84,0.15c-0.89,0-1.8-0.16-2.69-0.13
				c-1.91,0.05-3.8,0.2-5.71,0.28c-0.83,0.02-1.69-0.09-2.54-0.13c-1.43-0.05-2.85-0.14-4.28-0.16c-2.83-0.03-5.69-0.03-8.52-0.01
				c-2.35,0.02-4.69,0.1-7.02,0.13c-1.91,0.03-3.82,0.04-5.73,0.02c-1.09,0-2.17-0.08-3.24-0.19c-0.22-0.02-0.52-0.32-0.59-0.55
				c-0.19-0.59-0.33-1.21-0.33-1.82c-0.09-3.17-0.06-6.34-0.22-9.51c-0.09-1.79,0.85-2.96,1.98-4.02c1.82-1.69,3.69-3.29,5.56-4.91
				c2.86-2.47,5.73-4.92,8.56-7.41c0.98-0.87,1.85-1.88,2.84-2.76c1.78-1.59,3.61-3.13,5.41-4.68c0.2-0.17,0.41-0.32,0.59-0.49
				c1.78-1.66,3.54-3.3,5.3-4.98c1.35-1.3,2.67-2.68,4.02-3.99c1.21-1.16,2.48-2.24,3.71-3.4c1.13-1.1,2.24-2.25,3.37-3.39
				c0.13-0.13,0.2-0.32,0.3-0.46c-3.37,0.1-6.71,0.22-10.04,0.26c-1.02,0.01-2.02-0.24-3.04-0.28c-1.19-0.05-2.37-0.01-3.56-0.01
				c-0.68,0-1.39,0.01-2.09-0.01c-1.83-0.06-3.67-0.15-5.5-0.18c-2.8-0.05-5.6-0.09-8.39-0.1c-1.52,0-3.02,0.11-4.54,0.06
				c-1.26-0.03-2.54-0.18-3.8-0.38c-0.24-0.04-0.61-0.54-0.59-0.81c0.17-2.64,0.47-5.27,0.63-7.91c0.09-1.69,0.04-3.4,0.04-5.1
				c0-0.71,0.54-1.23,1.43-1.25c0.74,0,1.46,0.13,2.21,0.14c0.65,0,1.3-0.14,1.95-0.14c1.72,0.03,3.45,0.13,5.17,0.16
				c0.7,0.01,1.41-0.16,2.11-0.16c5.37,0.04,10.77,0.11,16.14,0.16c2.3,0.02,4.58-0.02,6.88,0.02c1.42,0.01,2.85,0.17,4.26,0.15
				c2.24-0.04,4.47-0.26,6.71-0.26c2.46,0,4.93,0.18,7.37,0.24c1.78,0.05,3.58,0.01,5.36,0.04c0.89,0.02,1.76,0.08,2.63,0.17
				c0.83,0.09,0.61,0.81,0.65,1.27c0.15,2.45,0.26,4.92,0.33,7.37c0.02,1.18-0.05,2.36-0.05,3.54c-0.02,0.5-0.06,1.02,0.07,1.5
				c0.39,1.65-0.46,2.61-1.65,3.58c-2.87,2.36-5.67,4.81-8.45,7.26c-2.69,2.34-5.32,4.72-7.95,7.1c-2,1.8-4,3.6-5.97,5.43
				c-2.13,1.98-4.22,4-6.34,5.99c-1.76,1.67-3.54,3.32-5.32,4.99C322.12,88.06,320.45,89.64,318.6,91.41z"/>
		</g>
		<g>
			<g>
				<path class="st1" d="M429.99,103.42c-0.18,0-0.46,0.08-0.65-0.02c-0.94-0.48-1.89-0.95-2.78-1.52
					c-0.48-0.31-0.76-0.92-1.22-1.26c-0.72-0.56-1.52-0.98-2.28-1.48c-0.2-0.14-0.48-0.31-0.54-0.53c-0.28-1.28-1.35-1.97-2.15-2.83
					c-2.19-2.3-3.76-5-5.34-7.71c-1.13-1.92-2.13-3.93-2.97-5.99c-0.55-1.36-0.8-2.87-1.07-4.33c-0.3-1.66-0.61-3.33-0.65-4.99
					c-0.02-1.67,0.2-3.35,0.45-5.01c0.28-1.98,0.8-3.93,1-5.9c0.2-1.75,1.04-3.19,1.8-4.66c0.8-1.52,1.74-2.96,2.72-4.37
					c0.7-1.02,1.58-1.93,2.35-2.9c0.57-0.72,1.09-1.51,1.72-2.17c0.78-0.79,1.63-1.49,2.48-2.2c0.93-0.79,1.82-1.66,2.85-2.3
					c3.06-1.91,6.19-3.68,9.84-4.32c1.06-0.19,2.09-0.72,3.17-0.81c2.56-0.2,5.11-0.21,7.67-0.34c3.45-0.17,6.61,1.06,9.82,2.04
					c1.91,0.58,3.86,1.19,5.63,2.09c2.11,1.07,4.13,2.39,6.1,3.75c1.04,0.72,1.95,1.7,2.83,2.65c1.3,1.4,2.67,2.79,3.78,4.35
					c0.83,1.18,1.31,2.6,1.93,3.93c1.67,3.72,2.84,7.61,3.85,11.57c0.19,0.77,0.24,1.57,0.28,2.37c0.07,1.38,0.13,2.77,0.15,4.14
					c0,0.51-0.13,1.02-0.26,1.51c-0.82,3.13-1.58,6.28-2.5,9.37c-0.93,3.03-2.74,5.6-4.67,8.06c-1.52,1.93-3.11,3.8-4.8,5.56
					c-0.74,0.77-1.85,1.17-2.74,1.8c-1.98,1.41-4.19,2.39-6.34,3.43c-2.17,1.06-4.47,1.65-6.86,1.98c-1.11,0.16-2.19,0.47-3.3,0.62
					c-0.72,0.1-1.43,0.03-2.15,0.05c-1,0.03-2.02,0.17-3,0.09c-1.39-0.11-2.74-0.4-4.13-0.56c-0.61-0.05-1.24,0.1-1.85,0
					c-0.74-0.13-1.46-0.42-2.19-0.65c-0.98-0.31-2-0.55-2.93-0.95C432.01,104.55,431.03,103.97,429.99,103.42z M465.83,73.18
					c-0.07-0.01-0.15-0.03-0.22-0.05c-0.05-0.29-0.15-0.57-0.17-0.87c0-0.25,0.13-0.5,0.13-0.76c-0.02-0.64-0.17-1.28-0.15-1.92
					c0.09-3.97-1.24-7.43-3.76-10.41c-0.96-1.14-2.39-1.88-3.41-2.99c-1.54-1.66-3.59-2.33-5.56-3.01c-1.74-0.6-3.69-0.68-5.56-0.8
					c-3.35-0.22-6.6,0.6-9.69,1.67c-1.98,0.69-3.76,2.09-5.47,3.38c-1.95,1.48-3.45,3.42-4.71,5.53c-1.15,1.95-2.48,3.84-2.58,6.18
					c-0.06,1.46,0.19,2.93,0.43,4.38c0.56,3.65,1.65,7.1,4.17,9.95c1.3,1.48,2.45,3.13,3.95,4.38c1.96,1.64,4.17,2.94,6.78,3.42
					c1.59,0.28,3.11,1.07,4.76,0.98c1.93-0.11,3.87-0.27,5.74-0.64c1.35-0.27,2.61-0.93,3.93-1.41c2.47-0.9,4.49-2.48,6.12-4.48
					c0.93-1.13,2.17-2.11,2.33-3.73c1.52-1.71,1.76-3.93,2.41-5.99C465.61,75.1,465.66,74.12,465.83,73.18z"/>
			</g>
		</g>
		<g>
			<g>
				<path class="st1" d="M202.21,106.2c0.3-0.87,0.46-1.48,0.71-2.06c0.74-1.74,1.53-3.45,2.25-5.19c0.96-2.34,1.84-4.71,2.83-7.03
					c0.98-2.31,2.08-4.56,3.07-6.86c1.1-2.54,2.13-5.13,3.21-7.69c0.43-1.01,0.97-1.96,1.37-2.97c0.65-1.67,1.24-3.37,1.83-5.06
					c1.4-4,2.97-7.91,5-11.64c0.78-1.43,1.32-2.99,1.96-4.51c1.23-2.94,2.44-5.89,3.67-8.83c0.77-1.83,1.59-3.64,2.33-5.46
					c0.28-0.66,0.69-0.97,1.41-0.97c2.63,0.01,5.28-0.02,7.92,0.01c2.2,0.02,4.41,0.13,6.61,0.14c0.67,0.01,1.07,0.26,1.32,0.84
					c0.69,1.66,1.33,3.34,2.02,5c0.69,1.66,1.39,3.31,2.11,4.95c1.09,2.46,2.19,4.94,3.35,7.37c0.74,1.57,1.67,3.06,2.41,4.64
					c0.93,1.95,1.72,3.97,2.59,5.94c0.57,1.32,1.24,2.59,1.78,3.92c0.37,0.9,0.54,1.88,0.91,2.78c0.85,2.05,1.78,4.08,2.67,6.11
					c0.11,0.21,0.2,0.4,0.33,0.6c0.54,0.89,1.19,1.67,1.34,2.84c0.13,1.13,0.85,2.17,1.28,3.26c0.67,1.73,1.3,3.47,1.98,5.2
					c0.44,1.06,1.06,2.06,1.48,3.13c1.06,2.66,2.02,5.36,3.06,8.02c0.22,0.57,0.65,1.07,0.94,1.63c0.19,0.35,0.26,0.74,0.48,1.36
					c-1.96,0-3.71-0.05-5.43,0.01c-3.63,0.1-7.25,0.28-10.86,0.37c-0.28,0-0.69-0.36-0.82-0.65c-0.67-1.51-1.26-3.06-1.89-4.58
					c-0.87-2.08-1.76-4.15-2.69-6.21c-0.07-0.18-0.41-0.35-0.61-0.33c-1.57,0.09-3.15,0.33-4.73,0.36c-4,0.04-8.01,0.04-12.01,0.01
					c-4.34-0.03-8.67-0.1-13-0.18c-0.54-0.01-0.82,0.16-1.01,0.66c-0.81,2.08-1.68,4.13-2.47,6.21c-0.44,1.15-0.81,2.34-1.14,3.53
					c-0.23,0.81-0.77,1.21-1.97,1.23c-2.92,0.03-5.85,0.07-8.77,0.08C206.84,106.22,204.65,106.2,202.21,106.2z M239.91,55.6
					c-0.12,0.01-0.25,0.03-0.37,0.04c-2.64,7.92-5.29,15.83-7.99,23.91c2.88,0,5.79,0.04,8.69,0c2.94-0.05,5.89-0.16,9.06-0.25
					C246.14,71.3,243.02,63.44,239.91,55.6z"/>
			</g>
		</g>
		<g>
			<path class="st1" d="M392.22,106.06c-1.37,0-1,0.07-2.56,0.09c-0.62,0-1.24-0.12-1.86-0.09c-2.36,0.09-4.72,0.24-7.07,0.31
				c-0.79,0.02-1.65,0.06-2.35-0.24c-0.32-0.13-0.37-1.04-0.44-1.6c-0.07-0.55-0.03-1.13-0.04-1.71c-0.01-0.39-0.07-0.79,0-1.18
				c0.2-1.11,0.19-2.19-0.01-3.34c-0.18-1.09,0.01-2.25-0.01-3.37c-0.03-1.32-0.14-2.61-0.13-3.91c0.01-1.13,0.13-2.28,0.21-3.45
				c0.03,0-0.12-0.02-0.23-0.02c0.05-0.63,0.11-1.24,0.18-1.89c0.1,0.19,0.19,0.37,0.23,0.44c0-1.04,0.04-2.14-0.01-3.23
				c-0.06-1.36-0.42-2.75-0.2-4.05c0.32-1.94-0.21-3.79-0.14-5.67c0.06-1.88,0.19-3.77,0.2-5.66c0.01-1.27-0.14-2.55-0.22-3.82
				c0.05,0.1,0.11,0.23,0.22,0.46c0-1.34,0-2.58,0-3.91c0,0,0.13-0.01,0.3-0.03c-0.03-0.6,0.12-1.33-0.16-1.81
				c-0.43-0.78,0.03-1.51-0.17-2.27c-0.21-0.79-0.03-1.67-0.03-2.52c0-1.61-0.03-3.23,0.01-4.84c0.03-1.09,0.15-2.19,0.23-3.29
				c0.11-1.53,0.25-3.06,0.32-4.58c0.02-0.58-0.03-1.2-0.21-1.74c-0.23-0.73,0.24-0.81,0.69-0.86c1.46-0.15,2.92-0.32,4.38-0.35
				c2.65-0.06,5.3-0.02,7.94-0.02c1.05,0,1.32,0.26,1.34,1.29c0.06,2.28,0.15,4.56,0.16,6.84c0,1.69-0.13,3.38-0.15,5.08
				c-0.03,2.24,0.04,4.49-0.03,6.73c-0.04,1.53-0.24,3.05-0.34,4.59c-0.04,0.67-0.01,1.35,0.01,2.03c0.05,2.97,0.12,5.95,0.16,8.92
				c0.03,2.82,0.02,5.64,0.01,8.45c0,2.19-0.01,4.39-0.05,6.58c-0.01,0.78-0.1,1.55-0.09,2.31L392.22,106.06z"/>
		</g>
		<g>
			<g>
				<path class="st1" d="M194.23,56.61c-0.17-0.7-0.29-1.4-0.52-2.07c-0.23-0.71-0.58-1.37-0.85-2.07
					c-0.22-0.56-0.32-1.17-0.59-1.71c-0.45-0.9-0.95-1.78-1.51-2.62c-0.58-0.88-1.32-1.65-1.89-2.53c-0.74-1.15-1.54-2.22-2.74-2.92
					c-0.96-0.55-1.91-1.11-2.88-1.63c-0.72-0.38-1.48-0.7-2.21-1.07c-0.3-0.15-0.55-0.41-0.87-0.5c-1.51-0.4-3.01-0.82-4.54-1.12
					c-1.28-0.24-2.58-0.35-3.89-0.45c-0.04,0-0.09,0.01-0.13,0.01v-0.01h-20.53v0c-2.43,0-4.86-0.03-7.28,0.02
					c-1.46,0.03-2.92,0.2-4.38,0.35c-0.45,0.04-0.92,0.13-0.69,0.86c0.18,0.55,0.23,1.16,0.21,1.74c-0.06,1.53-0.2,3.06-0.32,4.58
					c-0.08,1.1-0.2,2.2-0.23,3.29c-0.04,1.61-0.01,3.23-0.01,4.84c0,0.84-0.18,1.72,0.03,2.52c0.2,0.76-0.26,1.49,0.17,2.27
					c0.28,0.49,0.12,1.21,0.16,1.81c-0.16,0.02-0.3,0.03-0.3,0.03c0,1.33,0,2.57,0,3.91c-0.11-0.23-0.17-0.36-0.22-0.46
					c0.08,1.27,0.23,2.55,0.22,3.82c-0.01,1.89-0.14,3.78-0.2,5.66c-0.07,1.89,0.47,3.74,0.14,5.67c-0.22,1.3,0.15,2.69,0.2,4.05
					c0.05,1.09,0.01,2.19,0.01,3.23c-0.04-0.07-0.13-0.25-0.23-0.44c-0.06,0.64-0.12,1.26-0.18,1.89c0.11,0,0.26,0.02,0.23,0.02
					c-0.08,1.17-0.2,2.31-0.21,3.45c-0.01,1.3,0.11,2.59,0.14,3.91c0.02,1.12-0.17,2.28,0.01,3.37c0.19,1.14,0.21,2.23,0,3.34
					c-0.06,0.39,0,0.8,0,1.18c0.01,0.58-0.04,1.15,0.04,1.71c0.07,0.56,0.13,1.46,0.45,1.6c0.69,0.3,1.56,0.26,2.35,0.24
					c2.35-0.07,4.71-0.22,7.07-0.31c0.62-0.03,1.24,0.09,1.86,0.09c1.56-0.02,1.19-0.09,2.56-0.09l0.1-15.31
					c-0.02-0.77,0.08-1.54,0.09-2.31c0.02-1.1,0.02-2.2,0.02-3.3h18.69v-0.05c1.02,0.06,2.03,0.02,3.02-0.16
					c1.59-0.28,3.16-0.78,4.67-1.37c1.68-0.66,3.31-1.45,4.74-2.59c0.45-0.35,0.82-0.79,1.25-1.17c0.72-0.62,1.56-1.13,2.14-1.84
					c1.24-1.5,2.44-3.03,3.36-4.79c0.56-1.07,1.31-2.05,1.8-3.15c0.49-1.13,0.73-2.36,1.14-3.53c0.59-1.63,0.77-3.33,0.86-5.04
					C194.65,59.82,194.62,58.2,194.23,56.61z M181.95,62.09c-0.04,0.65-0.15,1.32-0.54,1.9c-0.12,0.19-0.2,0.45-0.2,0.68
					c-0.02,0.95-0.58,1.7-0.87,2.55c-0.12,0.35-0.25,0.67-0.6,0.89c-0.17,0.11-0.26,0.37-0.35,0.58c-0.37,0.85-1.17,1.23-1.88,1.67
					c-0.82,0.51-1.73,0.88-2.6,1.29c-1.36,0.64-2.77,0.86-4.22,0.79l0.01,0.04h-17.81c-0.04-2.66-0.1-5.33-0.14-8
					c-0.01-0.68-0.05-1.36-0.01-2.03c0.1-1.53,0.3-3.06,0.34-4.59c0.06-2.24,0-4.49,0.02-6.73c0-0.42,0.03-0.84,0.04-1.25h18.01
					c0.6,0,1.21,0.04,1.81,0.16c0.69,0.14,1.38,0.24,2.09,0.32c1.23,0.14,2.21,0.78,3.14,1.54c1.37,1.12,2.4,2.5,3.01,4.16
					c0.25,0.67,0.6,1.36,0.66,2.06c0.03,0.4-0.09,0.86-0.01,1.28c0.05,0.27,0.12,0.53,0.17,0.79c-0.04,0.01-0.07,0.02-0.11,0.02
					c-0.02-0.09-0.05-0.18-0.11-0.38C181.87,60.67,181.99,61.38,181.95,62.09z"/>
			</g>
		</g>
	</g>
</g>
</svg>
